<?xml version="1.0" encoding="utf-8"?>
<!-- Generator: Adobe Illustrator 16.0.0, SVG Export Plug-In . SVG Version: 6.00 Build 0)  -->
<!DOCTYPE svg PUBLIC "-//W3C//DTD SVG 1.1//EN" "http://www.w3.org/Graphics/SVG/1.1/DTD/svg11.dtd">
<svg version="1.1" id="svg2" xmlns="http://www.w3.org/2000/svg" xmlns:xlink="http://www.w3.org/1999/xlink" x="0px" y="0px"
	 width="398.346px" height="627.563px" viewBox="5.241 84.615 398.346 627.563"
	 enable-background="new 5.241 84.615 398.346 627.563" xml:space="preserve">
	<g id="g2627" transform="scale(2)">
		<path id="path22" fill="#D2B48C" d="M148.807,61.174l-0.226,0.198v0.226h-0.225l-0.198,0.198h-0.227l0.227,0.226h0.198h0.282v0.141
			v0.226h-0.199v0.424l-0.225-0.198v0.198h-0.424v-0.198l-0.225-0.226v0.648l0.225,0.226v-0.226h0.227v0.874h0.197v0.198v0.226h0.225
			v0.225h-0.225l-0.197-0.225l0.197-0.226h-0.197l-0.227,0.226l0.227,0.225h-0.227v-0.225v-0.226h-0.225V63.91h-0.197v-0.225
			l-0.227-0.226h-0.227v0.226h-0.198l0.198,0.225h-0.648l-0.425,0.423h0.226l0.199,0.225l0.226-0.225h0.225l0.198-0.226l0.227,0.451
			h0.227l-0.227,0.198h-0.227v0.226h0.227l0.227-0.226l0.422,0.226h0.197l-0.197,0.424l0.197,0.226h-0.423v-0.226h-0.197v0.226
			l-0.227,0.198v0.226h-0.227v0.423l0.227,0.226v0.649l-0.227,0.196h-0.197h-0.225l-0.226-0.198h-0.425v0.649h-0.196l0.196,0.198
			l-0.196,0.226l-0.226-0.226l-0.226,0.226v-0.226l0.226-0.198h-0.226l-0.424,0.424l-0.225-0.226l-0.198,0.226v0.226h0.198
			l-0.198,0.198h-0.226V68.65l-0.226,0.198l-0.423,0.226V69.3h0.226l0.198,0.198h-0.198l-0.226-0.198l-0.197,0.198l0.197,0.226v0.198
			v0.226h-0.196v0.424h-0.226l0.226,0.648l-0.226,0.226v0.424h-0.226l-0.198,0.226H142.4v0.198h-0.423l0.226-0.198l-0.226-0.226
			v-0.198l-0.228-0.226V71.22h-0.198l-0.224-0.198h0.224v-0.226l-0.224-0.226v-0.198l-0.227,0.198l-0.197-0.198h-1.1v-0.226h-0.198
			V69.92l-0.45,0.226v0.649l-0.425,0.226h0.425v0.198h0.225h0.227V71.02h0.198v0.649l0.227,0.198l-0.227,0.226h0.648v0.226
			l0.226,0.198l-0.226,0.226h0.226v0.649h0.226v-0.226l0.197,0.226l0.227-0.226v-0.2h0.198v0.198l0.224-0.198l0.228,0.198v0.226
			l-0.228,0.198h-0.224v0.452l-0.198,0.198v0.226l0.198-0.226h0.224l-0.224,0.226v0.226l-0.198,0.198v0.423h0.648v0.226l0.226,0.226
			v0.198h-0.226l0.226,0.452v0.846l0.198,0.226h0.225v0.198l0.198,0.226v0.226l0.226,0.198v0.226v0.874l0.226,0.423l0.197-0.226
			v0.226h-0.197h-0.451l-0.198,0.649h0.198l0.226,0.198h-0.424v0.226h-0.225v0.423h0.225v-0.198h0.198v0.198h0.226v0.226h-0.226
			l-0.198-0.226v0.226l-0.225-0.226v0.451l0.225,0.198h-0.225l-0.225-0.198l0.225-0.451h-0.225l-0.199,0.451l0.199,0.194
			l-0.199,0.226v-0.226l-0.226,0.226l0.226,0.198h-0.45l0.224,0.226h-0.224h-0.198v0.226h-0.227v0.424l-0.197,0.226v0.198h-0.226
			v0.423h0.226v0.226h-0.226v-0.226l-0.226,0.226l-0.197,0.226h0.197v0.198l-0.197,0.226h0.197v0.226h-0.197v0.198h0.197v0.226
			h-0.197v0.226v0.198h0.197v0.225l-0.196,0.196l0.197,0.226h-0.197l0.197,0.225h0.226v0.198l0.226,0.226h-0.451v0.198h-0.197
			l0.197,0.226h-0.423l0.226,0.226l-0.226,0.198h-0.226l0.226,0.226h-0.226l0.226,0.226h-0.226v0.198l0.226,0.226h0.226l0.197,0.198
			h-0.423l-0.649,0.649l0.226,0.226h-0.648V90.4h-0.226l-0.422,0.422v-0.226l-0.423,0.226l-0.226-0.226v0.452l-0.225-0.226h-1.073
			l-0.226,0.226h0.226l-0.226,0.198v-0.198v-0.226l-0.648-0.226h-0.198l-0.451-0.423v-0.225h-0.424l0.227-0.198l-0.227-0.226v-0.198
			h-0.648l0.227,0.198l-0.227,0.226l0.227,0.423v0.424h0.198v0.451h0.225v0.198l0.227,0.226v0.198h-0.227l0.424,0.226h-0.198
			l0.198,0.423v0.226h-0.198h-0.227l0.227-0.226v-0.198l-0.227,0.198l-0.225-0.198h-0.198l0.198,0.198h-0.425l-0.197,0.226h0.197
			v0.226l-0.197-0.226v-0.226l-0.225-0.198h-0.226v0.198h0.226v0.451l-0.226-0.226h-0.197l-0.227-0.226v0.226h-0.226l-0.198,0.226
			v0.198v0.226v0.198l-0.227,0.226v-0.423l-0.226-0.226l-0.198-0.423l-0.227,0.226H131.2l-0.227,0.423l0.227,0.198v0.226l0.197,0.226
			l0.227,0.198l-0.227,0.225v0.226H131.2v0.198h-0.227v0.451v0.198l-0.224,0.226h0.224v0.198h0.227v0.226h-0.227l-0.224,0.225
			l0.224,0.198v-0.199h0.227v0.198v0.225h0.197v0.423H131.2v0.226h-0.451l0.224,0.198h-0.224v0.226h-0.197l-0.227,0.226h-0.423v0.198
			h-0.227v-0.198l-0.197,0.198h-0.227l-0.226-0.424l-0.423-0.423l-0.648-0.226v-0.423h0.226h0.201v-0.225h-0.423l0.225-0.198h-0.225
			v-0.874l-0.198-0.226h-0.226l0.226-0.649h-0.226v-0.648h-0.649v-0.198h-0.226v0.423h-0.197l-0.451,0.226l0.225-0.226h0.226v-0.423
			h0.198l-0.198-0.226l-0.226,0.424V93.39h0.226l-0.226-0.226v-0.198l-0.225-0.226v-0.423h-0.649l-0.424,0.226h0.424l0.227,0.198
			l0.226,0.423h-0.451h-0.198v0.226h-0.227v0.226l-0.222-0.226v0.508h-0.198v-0.027l-0.198-0.198l0.198-0.226v-0.226h-0.195h-0.226
			v-0.423h0.226l0.197-0.226v-0.197l-0.423-0.225v-0.226h-0.226v0.451l-0.423,0.847l-0.226,0.226h0.452v0.226h0.197v0.423h-0.197
			v-0.226h-0.226l0.226-0.198h-0.226l-0.227,0.198l-0.197-0.198h-0.648l0.197,0.198l-0.197,0.226v0.424l-0.226,0.423l0.226,0.226
			l-0.226,0.874h0.649l0.225-0.226v0.423h-0.874l-0.198,0.451l0.198,0.198l-0.423,0.424l0.225,0.451l0.198,0.198l0.226,0.226v-0.226
			h0.197l-0.197,0.226h-0.226v0.649l0.226,0.424v0.649l0.648,0.226h0.197l0.453,0.198v0.226l0.197-0.226v0.451l0.225-0.226v-0.226
			h0.227v0.677h0.197v-0.17h0.338v-0.085h0.311l-0.226,0.226v0.198h0.226l-0.226,0.226l-0.198,0.226v0.028h-0.339v0.536h0.085v1.012
			h0.226l0.423-0.226l-0.197,0.226l0.197,0.226v0.198l0.227,0.423v0.226h-0.227l0.227,0.226l-0.227,0.198v0.648h0.452v0.226h-0.452
			h-0.197l-0.226,0.226v0.197l-0.226-0.197v0.423v0.198v0.226h0.226l-0.226,0.226h0.451v0.198v0.226h-0.226v0.226h-0.198h-0.197
			v0.424l0.169,0.395v0.254h-0.169v0.423h-0.226v0.226h-0.226l0.226-0.226v-0.649h-0.226v-0.199h-0.197v-0.226l0.197-0.198v-0.226
			V107.3h-0.197l0.197-0.197l0.226-0.875v-0.226l0.226-0.648l0.197-0.198v-0.423h-0.197l0.197-0.226h-0.197l-0.451-0.226
			l-0.198,0.226v-0.423l-0.452-0.226h-0.197l-0.226-0.226v0.452l-0.227,0.198l0.452,0.226l0.197,0.226v0.198l0.226,0.225v0.846
			l-0.226,0.451v0.198l-0.423,0.451l-0.227-0.226v-0.226l-0.196,0.226h-0.227v0.226h-0.648v-0.226h-0.198l-0.226-0.226v-0.198
			l-0.424-0.226h-0.225l0.225,0.226l-0.225,0.198h-0.227v-0.198l-0.197,0.423v0.648h0.197l-0.197,0.226h0.197l-0.197,0.198h-0.227
			l-0.197,0.424l-0.225,0.226l-0.424,0.226v0.198l-0.226,0.649v0.874l-0.197,0.226v0.198h0.197l0.226,0.226v0.198l-0.226,0.226h0.226
			v0.226l0.425,0.42v0.423l-0.423,0.226v0.198l0.423,0.226l-0.227,0.226l0.227,0.198h-0.227l0.227,0.451l0.424-0.226h0.225v-0.226
			h0.199l0.225-0.198l-0.225,0.424h-0.199l-0.422,0.423v0.226h-0.227v0.648l-0.423,0.423h-0.423v0.423h-0.225l0.225,0.226
			l-0.225,0.423l-0.425,0.226l-0.224,0.423l-0.226,0.226v0.198h0.226l-0.226,0.451l-0.424,0.423v0.226l-0.197,0.198v0.226
			l-0.45,0.423h0.227v0.225l-0.227,0.424l-0.425,0.198l-0.226,0.226h0.226l-0.226,0.226l0.452,0.198l-0.452,0.451l0.226,0.198
			l-0.226,0.226l-0.423,0.198l0.423-0.424v-0.198v-0.226l-0.198,0.226h-0.225l-0.196,0.419l-0.226,0.198v0.451l-0.423,0.423
			l0.198,0.226h-0.198l-0.451,0.423h-0.2v0.198l-0.227,0.226v-0.236h-0.422l-0.227-0.198v-0.875l0.227-0.423v-0.423l-0.227-0.649
			v-0.226l0.424-0.423l0.225-0.424l0.426-0.226v-0.226l0.451-0.424l0.198-0.423l0.225-0.226v-0.198l0.226-0.648h-0.451l0.225-0.452
			l-0.423-0.422v-0.226h0.198v-0.198h-0.198l0.423-0.647h-0.225l-0.424-0.424v-0.451h-0.225l-0.2,0.451l-0.647,0.198l-0.874,1.101
			l-1.072,1.072l-0.226,0.649l-0.424,0.226l0.198,0.198v0.424h0.226l0.424-0.198v0.198h0.451v-0.424l0.197-0.198h0.227v0.198h0.422
			v0.226h-0.197v0.198l-0.451,0.226l0.227,0.226h-0.227l-0.197,0.198v-0.424l-0.226,0.226v0.198h-0.227l-0.424,0.226h-0.226
			l-0.198,0.226h-0.226l-0.197,0.198l0.197,0.226l-0.197,0.226h-0.225l-0.226,0.198l-0.423,0.226v0.198h0.226v0.226l-0.226,0.226
			l-0.198,0.423v0.198h-0.226l-1.071,0.875h-0.452l-0.423,0.226v0.423h-0.226l-0.197,0.226l-0.451,0.649v0.649l-0.198,0.198
			l0.198,0.226h0.227l0.225,0.198v0.649h0.423v-0.202h0.227v0.423l-0.227-0.226v0.451h0.227l-0.227,0.198h0.423l0.452-0.198h0.197
			l0.225,0.198l-0.225,1.1l0.423,0.424l0.226,0.648h1.072l0.226-0.225h0.226l0.198,0.225h-0.423l-0.226,0.225h-0.198v0.198h-0.226
			l-0.198,0.45h-0.452l0.452,0.198l-0.226,0.226l-0.649-0.226v0.226l-0.225-0.226v-0.198l-0.197-0.226h-0.226h-0.226l-0.197,0.226
			l0.197,0.198h-0.197l0.197,0.226l0.226,0.423h-0.226l-0.197-0.423v0.196v0.226l-0.227-0.424v0.424v0.422l-0.423,0.452V132.5
			l0.226-0.226l0.198-0.422h-0.198l-0.45-0.424v1.072l-0.425,0.649v-0.424l-0.422-0.423v-0.225l-0.224-0.226v-0.198h-0.198
			l-0.225,0.198v0.226l-0.226,0.874h-0.197l0.197,0.198h-0.197v0.451l-0.226,0.198l-0.423-0.198l-0.226,0.198h-0.198l0.198-0.198
			l0.226-0.451h0.423l0.226-0.198v-1.099l0.423-0.424v-0.649l0.225-0.226l0.198-0.423v-0.198l-0.198,0.198v-0.198h0.198h0.224v-0.226
			l0.424-0.226v-0.198l0.65-0.423v-0.226l-0.226-0.226l-0.198-0.198l-0.423-0.226h-0.451v-0.225l-0.423-0.196l-0.226-0.226h0.226
			l-0.226-0.424v-0.423h0.226v-0.226h-0.226v-0.423h-0.197l-0.649,0.198l-0.874,0.451l-0.649,0.423l-0.422,0.198l-0.226,0.451
			l-0.847,0.424l-1.523,1.523l-0.875,0.423v0.226l-0.423,0.198l-0.649,0.648l-0.225-0.198v0.198l-0.424,0.226l-0.422,0.422h-0.227
			l-0.642,0.649v0.226l0.225,0.198h-0.225l-0.197-0.198v-0.451h-0.226l-0.423,0.648l-0.226,0.226v0.226l-1.073,0.648l-0.452,0.649
			l-0.197,0.198l-0.226,0.452v0.198l-0.198,0.423l-0.451,0.452h0.226v0.197h0.648h0.226l0.424-0.197h0.197l-0.197,0.197l0.197,0.226
			h-0.197h-0.226v0.649l-0.422,0.226v0.198l-0.226,0.226h-0.423v0.423l0.226,0.226h0.198l0.226-0.226l0.648,0.226l1.297,0.649
			l0.423,0.423l0.226,0.423l0.423,0.649v0.226l-0.648-0.423h-0.226l-0.198-0.226l0.423,0.875l0.423,0.198l0.225,0.423l-0.225-0.197
			l-0.649-0.423h-0.875l0.451,0.423h0.424l0.226,0.197h-0.452l-0.846-0.423l-0.649-0.423l0.423,0.846l-0.423-0.423l-0.648-0.198
			l0.198,0.423l0.226,0.198h-0.226l-0.192-0.198l-0.226-0.423l-0.197-0.226l-0.141,0.141l0.141,0.283l-0.226-0.198l0.085-0.085
			l-0.537-1.016v-0.197l-0.197-0.649v-0.451l-0.648-0.197h-0.224v-0.226l0.226-0.226v0.226l0.226-0.226v-0.848l0.198-0.226v-0.198
			l-0.198-0.225v-0.425H90.26l-0.226-0.226h-0.423h-1.523l-0.198,0.226h-0.226l-1.296,1.299v0.197h-0.226l-0.198,0.226v0.226
			l0.198,0.198l0.451-0.198l0.198-0.226v-0.226h0.226l0.423-0.423v0.226l0.226-0.226l0.198,0.226h-0.198l-0.451,0.197l0.226,0.226
			v0.226h-0.226l-0.198,0.198v-0.198h-0.226v0.198l-0.226,0.226l0.226,0.226h0.424v0.198h0.226l0.226,0.226l-0.45-0.226l0.226,0.226
			h-0.226l-0.141,0.141l0.141,0.283l-0.2-0.229l0.058-0.057l-0.058-0.141h-0.226l-0.423-0.424h-0.226l-0.226,0.198h-0.197v0.169
			h-0.141v-0.028H85.55l-0.226-0.198h-0.197l-0.226,0.198v-0.198l-0.226-0.451v-0.423h0.226l-0.226-0.226h0.226v-0.198h-0.226
			l-0.846-0.225v-0.198l-0.226,0.198l-0.226-0.198H83.18v0.198l0.197,0.225H83.18v-0.225h-0.226l-0.424,0.423l-0.423,0.226h0.423
			v0.226l-0.423-0.226l-0.226-0.226v0.226l-0.226,0.226l-0.197-0.227h-0.422h-0.452l0.226-0.226h-0.875l-0.847-0.424l0.198,0.226
			l-0.424,0.198v0.226l-0.226,0.226l-0.424,0.198l-0.226,0.226h0.226l-0.423,0.226l0.197,0.198l0.226-0.198v0.424h0.226v0.226v0.649
			l-0.226,0.197v0.874l0.226-0.226v0.226h-0.226h-0.423v0.592l-0.058,0.057l-0.197,0.225l0.423,0.424l0.226,0.226v0.198l-0.226-0.423
			h-0.226l0.226,0.226h-0.226v0.198h-0.197v0.226h-0.226l0.226-0.226v-0.649h-0.226L77.11,142.6l0.198,0.226H77.11l-0.226-0.226
			l-0.226,0.423l-0.198,0.226v-0.226l0.423-0.423h0.226v-0.423h0.198v-0.225v-0.226l-0.226-0.198l-0.198-0.423l0.198-0.226h-0.194
			l-0.226,0.226l-0.226-0.226l-0.424,0.226l-1.297,0.197l-0.423,0.226h-1.298l-0.226,0.198v0.226h0.226v0.423l0.198,0.226h0.226
			l0.197-0.226v0.226h0.452l-0.226,0.226h-0.226v0.198v0.226l-0.197,0.198l-0.226-0.198l-0.198,0.198h-0.451v0.452h0.451l0.198,0.423
			h-0.198v-0.226h-0.226v0.226l-0.226-0.226h-0.198v0.226h-0.226v0.226l-0.226-0.226h-0.198h-0.226l-0.226-0.226h0.226v-0.424h0.226
			l-0.226-0.423v-0.226l0.226,0.226v-0.226l0.198-0.198l-0.198-0.451h-0.226l-0.226-0.198v-0.225v-1.299h-0.423l-0.226,0.226h-0.418
			l-0.875,0.847h-0.423l-0.225,0.226l-1.072,1.298l-1.072,1.071l-0.649,0.452l-0.647,0.196l-0.226,0.226h0.226l-0.226,0.226h0.226
			l0.198,0.197h0.226l0.198,0.226h-0.196l-0.226-0.226h-0.424h-0.649l-0.226-0.197l-0.423,0.423v0.198l-0.226-0.198v0.198h-0.196
			l-0.226,0.226h0.226l-0.226,0.226h-0.198v0.198h-0.226v-0.198h-0.649l-0.226-0.226h-0.423l0.226-0.226l0.424,0.226l0.225-0.226
			h-0.225l-0.226-0.198l-0.649,0.198h-1.07l-0.423-0.198l-0.226,0.198v-0.198l-0.225,0.198l-0.423-0.198h-0.226v-0.226l-0.198,0.226
			h-0.649l-1.072-0.226h-0.225l0.226,0.226h0.198v0.198h-0.198l-0.226-0.198v0.198l-0.424-0.649l-0.226,0.226h-0.225v0.226
			l-0.196-0.226l-0.226,0.226v0.423h0.226v0.423H55.06v0.226l-0.198,1.071h-0.226l-0.226,0.424l0.226,0.648l-0.226-0.424v0.649
			l0.452,0.648v0.226l0.198,0.422h0.226v0.226v0.198l0.198,0.226l0.226,0.649l-0.226,1.071l-0.424,0.226l-0.198,0.227v-0.649
			l-0.226,0.197v0.226l-0.226,0.198l0.226,0.451l0.423,0.649v0.846v0.875l-0.198,0.227h-0.226l-0.226,0.197l-0.423,0.875
			l-0.424,0.197h-0.226v0.226l0.226,0.227h-0.226l-0.198,0.423l-0.226,0.226v0.198h0.226v0.225h-0.226v-0.225h-0.226v0.225
			l-0.198,0.424h-0.226v0.226l-0.226,0.424l-0.198,0.648v0.227l-0.221-0.232v0.424l-0.226,0.226v-0.226l-0.619,1.294l0.198-0.199
			h0.226l-0.423,0.199v0.226v0.197l-0.113-0.084l-0.226,0.197l-0.112,0.339v-0.226l-0.649,0.875h0.226l-0.226,0.226l-0.198-0.226
			l-0.226,0.226l-0.225,0.62v0.875l-0.198,0.422v-0.648L48.6,165.9v0.422l-0.198,0.452H48.6l-0.198,0.197h-0.226v0.424l-0.226,0.226
			v-0.197l-0.423,0.423l-0.424,0.846v0.648h-0.226v-0.423h-0.226v0.423h-0.113v-0.085l-0.028,0.085v0.028l-0.169,0.733l-0.226,0.227
			l-0.423,1.072v0.226l-0.225-0.227v0.226l-0.198,0.424v0.226l0.424,0.424v0.226v0.197h-0.227l0.227-0.197l-0.424-0.452v0.875h0.198
			l-0.198,0.226v0.198v0.226l-0.226,0.226l0.423,0.424h0.227v0.225l-0.227-0.225h-0.198l0.423,0.648l0.225-0.226h0.203l-0.198,0.226
			l0.198,0.423l0.395,0.396h0.028h0.113v0.283h-0.113h-0.198l0.198,0.226v0.084h0.113v0.227l0.226,0.226l0.424,0.197v0.226v1.946
			l-0.198,0.226l-0.226,0.424l0.424,0.191h-0.424v1.298v0.649h-0.14l0.027,0.141v0.451v0.62l0.226,0.452v0.197h0.198l-0.198,0.226
			l0.198,0.227h-0.198l0.198,0.197v0.225h-0.141l0.141,0.424v0.226h0.226v0.226l-0.226-0.226l0.226,0.875v0.198v0.45l0.225,0.198
			h-0.225v0.226l0.225,0.847v0.451l-0.225,0.648v0.198l0.225,0.226h-0.225v0.423v0.424l0.423,0.226h-0.198l0.198,0.649l1.072,1.1
			v0.198l0.226,0.226v0.197l0.648,0.874v0.227h-0.198v0.197l0.649,0.874l0.198,0.847h0.226v-0.198l0.424,0.424v0.226l0.226,0.197
			h-0.226l-0.226-0.197v-0.226l-0.198-0.226v0.226l0.424,0.874l0.423,1.072v1.522h-0.198v0.649v1.071l0.198,0.227h-0.423v0.648v1.297
			v0.227l0.198,0.424v0.227l0.451,0.648v0.197h0.198v0.226h-0.198l0.198,0.197l1.101,1.524l0.648,0.874l-0.226,0.197l0.226,0.452
			l0.198,0.197h0.226l0.226,0.226l0.198,0.424l0.226,0.226l0.423,0.648l0.424,0.847v1.749l0.226,0.197v0.226l-0.226,0.226v-0.226
			h-0.198v0.226h-0.228v0.648l-0.198-0.225v0.648h-0.226v0.423h-0.226l0.226,0.226h-0.226v0.423h0.226l0.198,0.226v0.197
			l-0.198-0.197l-0.226,0.424l0.226,0.425l-0.226,0.45v0.424v0.226l-0.198-0.226l-0.226,0.226v-0.226l-0.226,0.226l0.226,0.197
			h-0.226l0.226,0.649l0.226,0.424v-0.198h0.198v0.198h-0.198v0.226h0.423l0.649-0.226l0.423-0.424v0.226l-0.423,0.424v0.648h0.198
			l0.226,0.226h-0.226l0.451,1.298v0.198l-0.225,0.226v0.423l-0.423,0.227h0.113v0.057l-0.085,0.085v0.423l-0.197,0.226v0.197
			l0.197-0.197l-0.197,0.423l0.423-0.226l-0.226,0.226h-0.197v-0.226h-0.226l-0.226,0.424l0.226,0.225h0.226l-0.226,0.227
			l-0.226-0.227v0.227h-0.198v0.198l-0.226,0.227h0.424l-0.198,0.224l-0.226-0.224h-0.199l-0.226,0.422h-0.225v0.226l-0.198,0.648
			v0.198l-0.226-0.198v0.424h-0.226v0.226l-0.198,0.198l-0.226,0.451l-0.226,0.197l0.451-0.197l-0.226,0.197h-0.226l0.226,0.226
			h-0.226v0.197v0.028v0.197l-0.198,0.423l0.169-0.563l-0.169,0.367l-0.423,0.197v0.451l-0.226,0.198v0.226h0.226l0.198,0.226h-0.198
			h-0.226v0.424l-0.226,0.423h0.226l-0.226,0.226l-0.198,0.197h-0.226l0.226,0.227h-0.423v-0.227l-0.452,0.65l-0.198-0.199
			l-0.226,0.199v0.225l-0.219,0.216v-0.226l-0.198,0.424v0.226v0.225l-0.423,0.423l0.198-0.423v-0.225l-0.423,0.225v0.423h-0.226
			l0.226,0.197l-0.424,0.875v0.875l-0.227,0.648h-0.226v0.649l-0.423,0.648v0.198h-0.198l-0.226,0.227h-0.226l-0.198,0.225v0.197
			v0.226l0.198,0.198l0.226-0.198h0.226v0.198h-0.226l-0.226,0.226h-0.198l-0.085,0.084H46.34v-0.227v-0.422h-0.223h-0.198v0.422
			l-0.451,0.452l-0.198,0.423l-0.226,0.227l-0.226,0.649H44.62v0.847l-0.452,0.45v0.621l-0.198,0.227l0.198,0.874l-0.198,0.648
			l-0.226,0.424l0.226,0.226h-0.223v1.072l-0.193,0.201v0.424l-0.226,0.226l-0.226,0.423v0.423l-0.424,0.423v0.424l-0.198,0.452
			h-0.226l-0.226,0.196h0.226l-1.072,0.452v0.197h0.198v0.425v0.225h-0.198l0.198-0.225l-0.198-0.198H40.73l0.226-0.227h0.226
			l-0.226-0.197v-0.226H40.73l-0.423,0.423l-0.226,0.227v-0.227l0.451-0.423h-0.226h-0.648l-0.226,0.226h-0.198h-0.226h-0.191v0.197
			h-0.226l0.226,0.227v0.112l0.197,0.086h-0.197v-0.086l-0.226-0.112l-0.226,0.198h0.226v0.451l0.226,0.197l-0.226,0.226l0.226,0.226
			v0.197l-0.649-0.846l-0.226,0.198h-0.226v-0.198l-0.198-0.227h-0.226l-0.226,0.425v0.451l0.226,0.197l0.226-0.197l0.198,0.197
			h-0.198l-0.452,0.226v-0.423h-0.198v-0.451l0.198-0.425h-0.198v-0.225l-0.226,0.649v0.451l0.226,0.197v0.226l0.198,0.198v0.225
			v0.225h-0.198l0.198-0.225l-0.198-0.226h-0.226v-0.621l-0.198,0.424v0.197v0.226v0.225h0.198l-0.198,0.199v0.226l-0.226-0.425
			v0.848l-0.226,0.451l0.451-0.226h0.198l-0.198,0.226h-0.226v0.197l0.226,0.227h-0.226v0.226h-0.226v0.423v0.198h0.649l0.226,0.227
			h-0.649l0.226,0.648v0.226h0.198v0.225l-0.198-0.225v0.225l0.198,0.198l-0.198,0.226v-0.226l-0.226,0.649v0.226l0.226,0.197v0.225
			l0.198-0.225v0.225l0.226,0.227h-0.226l-0.198-0.227h-0.226h-0.226l0.226-0.225l-0.226-0.197v-0.226l-0.198,0.226l-0.226-0.226
			v0.423l-0.423,0.452l-0.226,0.647l-0.846,0.425l-0.226,0.196l-0.224,0.647l0.226,0.45l0.225-0.224v0.224h-0.225l-0.226-0.224v1.72
			l0.226,0.226v0.423l-0.226,0.226v-0.226l-0.198,0.226v0.227v0.197l-0.226,0.225v-0.225l0.226-0.197l-0.226-0.227h-0.226
			l0.226-0.226v-0.846l-0.226,0.197v0.452l-0.197-0.227v0.227l-0.226,0.197l0.226,0.423v0.451L32.554,264l-0.226-0.198V264
			l-0.198,0.226h0.198v0.563h-0.113l0.057,0.198l-0.451,0.649v0.875h-0.198l0.198,0.225v0.197h-0.198l0.196,0.648l-0.198,0.423v0.451
			h0.198l0.226-0.227v0.875l0.649-0.648l0.198,0.197v0.451l0.226,0.196v0.227l-0.226,0.225v0.199l-0.198-0.423l-0.226,0.225H32.27
			l-0.226-0.225h-0.226v0.225H31.62v0.425h-0.226v0.422h0.226l0.198,0.227l-0.198,0.422v0.424l0.198,0.873l0.451,0.198l-0.226,0.225
			l0.226,0.226v1.298l0.424,0.847v2.171l0.198,0.226v0.199l0.226,0.225l-0.226,0.226l0.451,0.198v0.451l0.198,0.424v0.423
			l0.226,0.424l0.225,0.649v0.227l-0.225,0.225l0.225,0.197v0.423l0.198,0.452v0.197l0.649,0.65l0.226,0.451l0.649,0.424l0.228,0.398
			v0.423l0.198,0.226v0.198h0.423v0.677h0.452l0.198,0.198h0.226v0.227l0.648,0.196l0.648,0.649v0.227l0.226,0.423v0.226
			l-0.226,0.424l0.226,0.225v0.423l0.198,0.423v2.595h0.226v0.226h-0.227l-0.198-0.226v0.226l0.423,0.227v0.197l0.423,0.451h0.226
			l0.198,0.198l0.226,0.424v-0.198l0.226,0.198l0.198-0.198v0.648l0.226,0.198l0.423,0.227l0.424,0.648v0.649h-0.201v0.648h-0.226
			l-0.198-0.226v0.226l0.198,0.226v0.424l0.226-0.226v0.423h0.198H42.4l0.198,0.226l-0.649-0.226v0.226l-0.198-0.233l-0.226,0.452
			h-0.198l-0.226,0.198h-0.649l-0.649,0.226v0.649l-0.226,0.423l-0.198,0.226h0.198v0.197h0.226l-0.226,0.451v0.197l-0.198,0.226
			l0.198,0.424v0.226h0.226v0.198l-0.226-0.198h-0.198l0.198,0.425v0.422L40,302.935v0.196l-0.423,0.425l0.423,0.45l0.226,0.65
			L40,304.853v0.226h-0.198L40,305.728l-0.198,0.422L40,306.575v0.451h0.028v0.14v0.028v0.027h0.028l0.226,0.226v0.424l-0.226,0.847
			l0.226,0.452l0.424,1.072v1.523l0.198,0.423h0.452l0.423,1.071v2.396l0.226,0.199v0.451l0.198,0.198v0.422l0.226,0.227l0.198,0.424
			v0.451h0.226v0.417l0.226,1.072l0.198,0.226h0.226v0.225l0.226,0.198l0.198,0.423l0.423,0.452v0.649l0.226,0.423l0.226,0.226h0.423
			l0.648,0.619h0.226l0.339,0.366v0.282l0.113,0.086v0.197l0.451,0.225l0.198,0.199v1.101l0.226,1.07l0.226,0.226l-0.226,0.65
			l0.226,0.424l-0.451,0.226h-0.204l0.198,0.197l-0.198,0.226h0.424v-0.226h0.226l0.198,0.226v0.226v0.649l0.423-0.227l0.226-0.226
			l-0.226,0.452H48.07v0.197h0.198l0.451,0.425v0.225h0.198l0.451-0.225h0.648l0.424,0.225l0.649,0.424l0.198,0.451l0.648,0.197
			l0.226,0.423h0.226h0.196l0.451,0.226l0.847,0.874l0.423,0.199h0.226v-0.199l0.226,0.199v0.225l-0.226-0.225v0.225l-0.226,0.227
			v0.197l-0.198,0.226v0.197h-0.649l1.298,0.226h0.847l0.874,0.423h0.649l1.945,0.226l1.298,0.227l1.523,0.422l0.846,0.424
			l0.649,0.423l1.1,0.649l0.424,0.451v0.197l0.225,0.452l0.425,0.422l0.846,0.424l0.226,0.226l0.648,0.198h0.424l0.451,0.227
			l0.198,0.422l0.226,0.227v0.423l0.197,0.423l0.452,0.226h0.648l1.073-0.423h1.1v-0.226l0.649,0.226h0.191v-0.226h3.046l0.846-0.423
			h0.226l0.875-0.227l1.269-0.875v-0.197l0.875-0.875l0.423-0.196l0.649-0.452h0.226l1.72-1.298l1.749-1.071l0.649-0.227v0.197
			l0.113-0.112l0.847-0.423l0.451-0.226l1.72-0.649l2.595-0.874l2.594-0.62h0.451l0.846-0.227h0.649l0.874,0.424h1.299v0.423
			l0.423-0.197h0.226l0.422-0.226h0.65l0.423-0.424v-0.225l-0.423-0.197l-0.423-0.452v-0.198h0.423l-0.227,0.198l0.451,0.452h0.423
			v0.197l0.226,0.225l0.422-0.422l0.423-0.452h-0.227v-0.198l0.227,0.198h0.422v-0.198l0.227-0.227l0.875-0.648h0.847v-0.198h-0.65
			v-0.226h0.228v-0.225h-0.228v-0.198h0.228l0.196,0.422h0.451l-0.225,0.424h0.647l-0.226-0.198l0.226-0.45l0.226-0.198h0.199
			l0.225,0.198v-0.198l-0.225-0.451l0.647-0.649l0.452-0.197h-0.225v-0.226h0.422v0.226l0.226-0.226l0.423,0.226v0.423h0.199v-0.423
			h0.225v-0.424l-0.225-0.226h0.225v-0.224l-0.225-0.198v-0.227h0.225l-0.225-0.225h0.225v0.225l0.227,0.227l-0.227,0.198
			l0.227,0.224v-0.224h0.197v-0.425l-0.197-0.225v-0.2l0.197-0.648l0.648-1.101l0.226-0.424h0.424v-0.198l-0.198-0.451v-0.197
			l0.198-0.649l0.225-0.451v-0.198l0.199-0.422l0.225-0.651v-0.226h0.227v-0.422l0.424-0.873l0.225-0.649v-0.227l0.198,0.227
			l0.226-1.299v-0.874l0.226-0.847h0.198l-0.198-0.227l0.198-0.197v0.197l0.225-1.071l0.198-0.226v-0.197l0.226-0.452h-0.338
			l0.112,0.227l-0.198-0.227h0.086l-0.086-0.198h-0.225v-0.225l0.225,0.225h0.198l0.226-0.225h0.226l0.198-0.226v-0.425l0.225-0.423
			l0.227-0.874l-0.227-0.198h0.227v-0.226l0.197-0.227v-0.197l0.424-0.648l0.648-1.298h0.227l0.423-0.847v-0.027v-0.029h0.057
			l0.085-0.084l-0.225-0.648l0.648-1.524l0.423-1.072l0.423-0.873l0.227-0.226v-0.621l0.423-1.523v-0.874l0.452-0.874l0.196-0.197
			v-0.424l-0.196-0.226l-0.227,0.226v-0.226h-0.226v-0.226h-0.196v-0.197h0.422l0.227-0.227v0.424l0.196,0.226v-0.874h0.228
			l0.197-0.197v-0.874l0.226-0.424l0.226-0.875l0.424-0.846l0.197-0.649v-0.214h-0.197l-0.649,0.226l0.847-0.452v-0.423l0.226-0.197
			v-0.452l0.227-1.071l-0.227-0.226h0.227v-0.65l0.226-0.196v-1.298h0.197l0.226-0.649l0.197-0.874l0.227-0.424l0.226-0.225
			l0.198-0.65v-0.648l0.226-0.874l0.197-0.649l0.226-0.847l-0.226-0.648l0.452-1.1l0.196-2.144l0.227-1.299l0.423-1.945h-0.198
			l0.424-1.298l0.226-0.451v-0.198h0.198l0.226-0.873l0.197-1.299l0.452-0.648l0.424-1.298v-0.113h0.084v-2.877h0.902v-1.325h0.733
			l0.085-0.113h0.198l0.451-0.847l0.198-0.226v-0.225l0.226-0.424v-0.422l0.649-1.722l-0.226-0.226h-0.424l-0.225-0.226l-0.649-0.423
			v-0.226l0.452,0.451l0.422,0.197h0.65v0.226l0.649-0.874v-0.846l0.423-0.452l0.226-1.071v-0.226v-0.196h0.197l0.423-1.946
			l0.227-0.424l0.422-0.648l0.452-1.298v-1.946l0.198-0.226h-0.198l-0.227-0.227h0.425v-0.639h-0.425l-0.227-0.198h0.227l0.425-0.225
			l0.225,0.225v-0.225l1.072-2.172l0.225-0.847l0.423-0.648l0.226-0.874v-0.649l-0.226,0.424v-0.847h0.226v-0.874l0.423-1.101v-0.198
			l0.425-1.298v-0.871l0.227-0.648l0.423-1.523l0.424-1.72l0.226-0.226v-0.425l-0.226,0.227l-0.424,0.424v-0.424h0.424v-0.227
			l0.226-0.197v0.197h0.226v-0.197l0.424-0.451l0.198-0.847l0.226-0.649v-0.874l-0.226-0.197l0.226-0.451l0.225-0.848v-0.226
			l0.425-0.423v-0.226l0.423-1.071h-0.197v0.226h-0.226v-0.226l0.423-0.875h0.226l-0.226,0.648l0.424-0.847l0.648-0.648l0.647-2.171
			l0.452-0.648v-0.227l-0.226-0.197h-0.029v-0.028h0.029l0.084-0.085l-0.648-0.451h-0.227v-0.198h0.227l0.648,0.423h0.197v0.227
			h0.206v-0.227l0.423-0.648l0.225-0.424v-0.648h-0.225v-0.226l-0.198-0.197v-1.299l0.648-2.17v-1.095l0.198-0.424l0.452-0.648
			v-0.423h0.197l0.225-0.875l0.425-0.648l0.226-0.648l0.424-1.072v-0.226h-0.197l0.197-0.424v0.424l0.423-0.846v-0.452l0.226-0.423
			v-0.198h0.198v-1.1l0.226-1.298h-0.226l0.226-0.198v-0.447h0.226l-0.226,0.451h0.226l0.198-0.649l0.45-1.1v-0.198h-0.225
			l0.225-0.226v0.226l0.198-0.451l0.424-1.72l0.226-0.227v-0.197l-1.071-1.102l0.846,0.649l0.226,0.451l0.874-1.749v-0.648
			l0.847-1.721l0.649-2.396l0.254-0.479h-0.424l0.227-0.424v-0.649l0.423,0.198v0.227l-0.141,0.479l0.762-1.494l0.423-1.298h-0.226
			l0.226-0.226l0.648-1.299l0.198-1.522l0.227-0.649l0.227-0.423v-1.072l0.196-0.648l0.226-0.451l0.227-0.197h0.648v-0.227h-0.226
			v-0.424l-0.225-0.226l-0.198-0.424v-0.423l0.198-0.424l0.225-0.45v-0.762h0.058v-0.198l0.226-0.648v-0.198l0.197-0.649l0.649-1.522
			l0.451-1.298v-0.649l0.423-1.1v-0.424h-0.225l-0.198-0.423l-0.225-0.227l-0.424,0.227l0.198-0.227h0.226v-0.846l-0.226-0.226
			v-0.424l0.226-0.874l-0.424,0.225v-1.1h0.198v-0.197h-0.424v-0.424h-0.197l0.197-0.875h-0.197l-0.226-0.423h-0.226v-0.226h-0.199
			v-0.423l0.199-1.101l0.451-1.071v-0.226l0.197-0.198l0.227-0.649l-0.227,0.198h-0.197l0.197-0.198h0.227l0.424-0.648l0.225-0.423
			v-0.648l0.198-0.226l0.225-0.227v-0.415l0.198-0.423v-0.424l0.226-0.226v-0.226l0.225-0.198v-0.226l0.198-0.226l0.226-0.424
			l0.226-0.197v-0.648l0.197-0.226l1.299-0.423v-0.226h0.648l1.75-0.226l0.648-0.198l0.197-0.226h-0.648l-0.198-0.197l-0.452-0.227
			l-0.423-0.423l-0.198-0.452l-0.226-0.197l0.226-0.226L158.1,157v-0.648l0.423-0.451l0.225,0.226h0.199v-0.226l0.227-0.197v-0.226
			l0.226-0.226v-0.197l0.198-0.227v-0.193v-0.226l0.648-0.649l0.226-0.423v-0.227l-0.226-0.226l0.226-0.197v-0.874h0.225v-0.198
			l0.198-0.225v-0.226l-0.198-0.198l0.198-0.226h-0.198l-0.225,0.226l-0.226-0.451v-0.648l-0.197-0.423v-0.198l-0.227-0.226v-0.226
			l0.227-0.198v-0.226l0.197-0.226h-0.197l0.423-0.423v-0.649h0.225v-0.649l-0.225-0.198l-0.226-0.451h-0.197l-0.227-0.198H159.4
			v-0.226h-0.651h-0.225v-0.226h-0.198l-0.451-0.424h-0.197l0.197-0.197l-0.197-0.226v-0.648l-0.452-0.424v-0.649l0.226-0.451v-0.17
			v-0.649l0.677-1.072l0.198-0.226l-0.423-0.198v-0.452l-0.226-0.423v-0.424l-0.198-0.226v-0.424l-0.227-0.423l-0.225-0.226
			l-0.198-0.875l-0.227-0.423v-0.219l0.227-0.423l-0.227-0.423l0.227-0.423l-0.227-0.226v-0.226h-0.197l-0.226-0.198l-0.226-0.423
			v-0.226l0.226-0.423l0.226-0.226l0.424-0.648l1.072-1.073h0.874v0.198l0.198-0.198l0.874-0.226h0.875l0.198-0.198l0.225,0.198
			l0.423,0.226h0.218l-0.225,0.423v0.423l0.225,0.227v0.198l-0.225,0.451v0.847l0.422,0.226l0.227,0.423l0.423,0.226l0.226,0.197
			v0.226l-0.226,0.875l0.226,0.649v0.423l0.226,0.423l0.396,0.396l0.028,0.057v0.085l0.027-0.113h0.198l0.226,0.197v0.225
			l-0.226,0.423l0.226,0.649v0.451l0.847,0.847l0.649,0.226l0.874,0.423l0.225,0.225v0.649l0.198,0.197l0.226-0.197h0.848
			l0.225-0.226v-0.226l-0.225-0.197l0.676-0.648l-0.226-0.226l0.423-0.422l0.424-0.226l0.226-0.198v-0.45l0.225-0.424h0.198
			l0.423-0.226v-0.198h-0.423l0.226-0.649l0.422-1.1l0.426-1.297l0.648-1.298l0.451-0.649v-1.269l0.197-0.451l0.424-0.424
			l-0.197-0.423l0.197-0.226v-1.072h0.226l0.226-0.451v-0.198l-0.226-0.649v-0.423l-0.226-0.649v-0.226l-0.197-0.226h-0.227v-0.198
			h-0.197v-0.226h-0.229l0.225-0.226v-0.196l-0.649-0.875l-0.875-0.846v-0.451h-0.225v-0.198h0.225l-0.225-0.452l0.225-0.198
			l-0.225-0.226v-0.424h-0.198v-0.226l-0.227-0.198v-0.451l-0.195-0.196h-0.226l-0.227-0.226l0.227-0.423h-0.227l-0.422-0.648v-0.226
			v-0.649l-0.228-0.198v-0.451h-0.197v-0.423l-0.451-0.423v-1.72l-0.198-0.226v-0.649h-0.227v-0.424l-0.196-0.451v-1.946h-0.226
			v-1.72l0.422-1.298v-0.875l-0.195-0.421h-0.226l-0.649-0.649v-1.071l0.227-0.874l0.196-1.719v-0.226h-0.196l-0.227-0.198v-0.226
			h-0.226v-0.226v-0.198h-0.028v-0.084h0.058v-0.057v-0.198v-1.1l0.197-0.649V99.71h-0.197l0.197-0.874v-1.07l-0.197-0.226
			l-0.226-0.649l-0.227-0.226v-0.424l-0.197-0.226l-0.225-0.423h-0.198v-0.424l0.198,0.424V94.52l-0.198-0.424h-0.227l-0.226-0.226
			v-0.875l-0.197-0.423l-0.424-0.226v-0.423v-0.198v-0.677h-0.226V90.85v-0.451l0.226-0.649v-0.847h-0.45v0.169v0.226h-0.227
			l-0.226-0.226v-0.649h-0.423l0.423-0.198h-0.197v-0.226h0.197v-0.226l-0.423-0.424v-0.42l-0.226-0.225v-0.226l-0.197-0.198v-0.226
			l-0.226-0.198l-0.197,0.423l-0.226,0.226l0.423-0.649V85.63l0.225-0.874l-0.225-0.424l0.225-0.648l-0.225-0.198V83.26l0.225-0.423
			l-0.225-0.226h-0.198v-0.226h-0.226l-0.424-0.847l0.198-0.226l-0.424-0.198h-0.423v-0.452l-0.227-0.198l0.227-0.225h0.196v-0.226
			l-0.196-0.198h-0.874l-0.198-0.423h0.198l-0.425-0.451l0.227-0.198v-0.226h-0.227l0.227-0.423l-0.649-0.226v-0.195h-0.226
			l0.226-0.226h-0.451v0.226l-0.196-0.226v-0.424h-0.225v-0.226h-0.225l-0.198,0.423v0.423l-0.227,0.226h-0.197l0.197,0.226v0.198
			l-0.197-0.198h-0.226l-0.226,0.198l-0.197-0.198l0.648-0.452v-0.198l-0.226-0.424l-0.226-0.226v-0.649l-0.846-0.874h-0.226
			l-0.198-0.198v0.198l-0.226,0.226l-0.227-0.226l0.227-0.198h-0.227l-0.197,0.198v-0.847l0.197-0.226v-0.198l0.227-0.226
			l-0.227-0.226v-0.423l-0.423-0.226h0.226v-1.072h0.197v0.423l0.227,0.226h-0.227l0.227,0.198h-0.227v0.226h0.65v-0.226
			l-0.198-0.198h0.198l-0.198-0.648v-0.226h-0.226v-0.649l-0.227-0.423l-0.197,0.226v0.198h0.197v0.451l-0.197-0.226v-0.226h-0.226
			l-0.197,0.226l0.197,0.226h-0.423v-0.451l0.198-0.198h-0.198v-0.226h-0.227l-0.225,0.226h-0.197v-0.226h0.197l0.225-0.423h0.227
			v0.198l0.198,0.226v0.226l0.226-0.226v-0.226h-0.226l0.226-0.424l-0.226-0.226v-0.198h-0.198v-0.226h-0.648l-0.423,0.226v0.198
			h-0.225l-0.226-0.198h0.226v-0.226l-0.422-0.423v0.226l-0.227-0.226h0.227v-0.226h-0.227V68.16l-0.226-0.226v-0.419h-0.197
			l0.197-0.198h-0.197v-0.226h-0.226l-0.425-0.424l-0.226,0.198l-0.197,0.451h0.197v0.198l0.226,0.226v0.198l-0.226,0.451h-0.649
			l-0.196-0.226V67.96l0.196-0.198v-0.226h-0.647l0.226,0.226h-0.226l-0.197,0.423l-0.226-0.226v0.226h-0.227h-0.197l-0.225,0.423
			l-0.196-0.198v-0.226h-0.452l0.226-0.226V67.76h0.226l-0.226-0.226h0.226l-0.226-0.198l0.226-0.226h0.197l0.227,0.226v0.423
			l0.197,0.198h0.225v-0.198h0.227l0.198-0.423v-0.452h-0.425l-0.225-0.198l-0.197,0.198h-0.452l0.226-0.198V66.46l0.423-0.226V66.04
			h-0.423v-0.226l0.227-0.423l0.197-0.226h0.225v0.226l0.227,0.226l-0.227,0.198h0.227l0.198,0.226v-0.226l0.226,0.226h0.197
			l0.226-0.226h-0.226v-0.198h0.226v-0.226l0.226,0.226h0.196v0.198l0.649,0.648v-0.424h-0.197v-0.874h-0.226v-0.847l0.226,0.198
			v-0.198l-0.226-0.225V63.88l-0.227-0.198l0.227-0.226h-0.648v-0.195h0.226V62.81l-0.226,0.226v-0.649l-0.226-0.226h-0.085V62.02
			h0.028v-0.423l-0.226-0.225h-0.226v0.225h-0.197l0.197-0.225v-0.198H148.807L148.807,61.174z M149.934,66.053l-0.198,0.198v0.226
			h0.198V66.053z M160.935,81.142l0.225-0.226l-0.225-0.226V81.142z M158.733,156.132h-0.225v0.226L158.733,156.132z
			M148.638,195.278l-0.085,0.169h0.027L148.638,195.278z M53.453,334.006l0.198-0.197v-0.226l-0.198,0.226V334.006z M53.651,333.583
			v-0.423l-0.198-0.424h-0.226L53.651,333.583z M53.228,332.738l-0.198-0.451h-0.028L53.228,332.738z M52.381,331.638v0.225h0.198
			L52.381,331.638z M47.841,328.648l-0.198-0.225h-0.225L47.841,328.648z M36.221,252.781l0.226-0.225l-0.226-0.424V252.781z
			M46.347,239.19l0.198,0.225v-0.225H46.347z M55.399,223.254l0.198-0.226v-0.198L55.399,223.254z M51.084,202.103l0.198-0.226
			l-0.198-0.197V202.103z M47.051,185.04l-0.057-0.226v0.226H47.051z M50.323,163.296l0.112-0.113l0.113-0.311L50.323,163.296z
			M50.549,162.873l0.113,0.112l0.113-0.112H50.549z M72.349,144.09l0.198-0.198h-0.198V144.09z M73.618,142.595h-0.197v0.226
			L73.618,142.595z M94.376,140.283l0.422,0.226l0.423,0.197h0.227l-1.072-0.847H94.15l0.226,0.198V140.283L94.376,140.283z
			M95.024,132.075l0.422-0.198h-0.225L95.024,132.075z M125.173,93.156l-0.226-0.198v0.198H125.173z M130.982,94.679l0.226-0.198
			v-0.226h-0.226V94.679z M139.388,71.215v0.226h0.225L139.388,71.215z M147.566,63.035h-0.197v0.226L147.566,63.035z
			M148.214,62.611v-0.226l-0.197-0.225l-0.226,0.226l0.226,0.226v-0.226L148.214,62.611z M122.578,103.619l-0.197,0.226h0.197
			V103.619z M124.524,107.539l0.197,0.17v0.423l-0.028-0.028v-0.31l-0.169,0.141V107.539L124.524,107.539z M109.464,122.994v0.226
			h-0.226L109.464,122.994z M98.887,129.707l0.226,0.226v0.226l-0.226,0.198l0.226,0.226h0.198l-0.198,0.198v-0.198h-0.226
			l-0.225-0.226v-0.198h0.225v-0.226h-0.225l-0.395,0.198l0.198-0.198h0.197L98.887,129.707z M82.502,144.118h0.451l0.423,0.423
			v0.226h-0.423v0.226h0.197v0.198l0.226,0.451l-0.226,0.198v-0.198h-0.197v-0.226l-0.226-0.226v0.226l-0.648,0.226v-0.451h-0.226
			l-0.198,0.226l-0.422-0.226v-0.198h-0.452l0.226-0.226h0.649l0.198-0.226h0.452l0.197-0.197L82.502,144.118L82.502,144.118z
			M54.863,153.594h0.198l0.226,0.423h-0.226v-0.198L54.863,153.594z M135.777,168.625h0.226v0.197l0.423,0.226v0.649l0.227,0.424
			v0.226l-0.227,0.424l-0.226,0.226v0.423l-0.198,0.424h-0.226l-0.649,0.226v0.226l0.227,0.198v0.423h-0.423l-0.226,0.225v1.071
			l-0.424,0.875l-0.225,0.226v-0.226l-0.226-0.423v-0.874l-0.197-1.073l0.847-0.648l0.227-0.423l0.422-0.226v-0.424h0.228v-0.226
			l-0.423-0.424v-0.423l0.196-0.227h0.228l0.197,0.227h0.226v-0.227l-0.226-0.648L135.777,168.625z M100.919,203.682h0.227
			l0.648,0.648h0.197l0.227-0.198h0.227l-0.452,0.425v0.226h-0.197l-0.225,0.197l-0.424,0.227h-0.227l-0.226-0.227l0.451-0.422
			v-0.452l-0.227-0.197L100.919,203.682L100.919,203.682z M143.787,208.927v0.197h-0.226L143.787,208.927z M55.597,214.399h0.226
			l-0.226,0.451V214.399z M53.933,226.188h0.226l-0.226,0.197V226.188z M45.698,239.641v0.423h-0.226v-0.226L45.698,239.641z
			M38.817,252.36l0.197,0.423v0.198l0.226,0.227h-0.226v-0.227l-0.197-0.423V252.36z M74.916,253.516l0.226,0.198v0.874h-0.423
			l-0.226-0.452l0.226-0.423L74.916,253.516z M40.283,262.371v0.226l0.198,0.225h0.226l0.847,0.424l0.226,0.226l-0.226,0.648
			l-0.198,0.198l-0.451,0.226l-0.846,0.197h-0.226l-0.198-0.197l0.198-0.226l-0.198-0.198h-0.452l-0.198-0.648v-0.226h0.198v0.424
			l0.226,0.225h0.423v-0.225v-0.424v-0.226l0.226-0.423L40.283,262.371z M42.228,268.886h0.198v0.198l0.226-0.198l0.226,0.198v0.45
			l-0.226,0.198h-0.226l-0.649-0.423h0.226h0.226L42.228,268.886L42.228,268.886z M41.581,307.44h0.226v0.451l0.424,0.424
			l0.198,1.298l0.226,0.874v0.847l-0.226-0.424l-0.198-0.225v-0.423v-0.226l-0.225-0.225v-0.425l-0.198-0.225v-0.424l-0.452-0.422
			v-0.227l0.226-0.198L41.581,307.44L41.581,307.44z M93.557,331.497l0.424,0.197v0.226L93.557,331.497z M54.299,332.286h0.226v0.226
			L54.299,332.286z"/>
	</g>
	<g>
		<g>
			<path d="M394.657,307.055c-4.935,0-8.933,3.924-8.933,8.759c0,4.838,8.933,20.705,8.933,20.705s8.93-15.869,8.93-20.705
				C403.587,310.979,399.586,307.055,394.657,307.055z"/>
		</g>
	</g>
	<g>
		<g>
			<path d="M306.241,84.615c-4.933,0-8.931,3.923-8.931,8.759c0,4.839,8.931,20.705,8.931,20.705s8.932-15.868,8.932-20.705
				C315.172,88.54,311.172,84.615,306.241,84.615z"/>
		</g>
	</g>
	<g>
		<g>
			<path d="M154.005,682.714c-4.933,0-8.931,3.924-8.931,8.76c0,4.839,8.931,20.705,8.931,20.705s8.931-15.866,8.931-20.705
				C162.936,686.64,158.937,682.714,154.005,682.714z"/>
		</g>
	</g>
	<g>
		<g>
			<path d="M14.172,420.224c-4.934,0-8.931,3.926-8.931,8.76c0,4.84,8.931,20.705,8.931,20.705s8.932-15.867,8.932-20.705
				C23.104,424.148,19.104,420.224,14.172,420.224z"/>
		</g>
	</g>
	<g>
		<g>
			<path d="M204.172,366.224c-4.934,0-8.931,3.926-8.931,8.76c0,4.84,8.931,20.705,8.931,20.705s8.932-15.867,8.932-20.705
				C213.104,370.148,209.104,366.224,204.172,366.224z"/>
		</g>
	</g>
</svg>
