<?xml version="1.0" encoding="utf-8"?>
<!-- Generator: Adobe Illustrator 16.0.0, SVG Export Plug-In . SVG Version: 6.00 Build 0)  -->
<!DOCTYPE svg PUBLIC "-//W3C//DTD SVG 1.1//EN" "http://www.w3.org/Graphics/SVG/1.1/DTD/svg11.dtd">
<svg version="1.1" id="svg2" xmlns="http://www.w3.org/2000/svg" xmlns:xlink="http://www.w3.org/1999/xlink" x="0px" y="0px"
	 width="409.814px" height="638.609px" viewBox="0 0 409.814 638.609" enable-background="new 0 0 409.814 638.609"
	 xml:space="preserve">
<g id="g2627" transform="scale(2)" display="none">
	<path display="inline" fill="#00A7A7" d="M183.123,174.804c-31.302,79-24,144.508-126,144.5
		c-55.051-0.005-64.521-53.237-51.336-159c14.336-115,111.21-159,146.034-160.261C213.623-2.196,219.002,84.254,183.123,174.804z"/>
	<path id="path706" display="inline" fill="#D2B48C" d="M167.777,107.742h-0.332l-0.332,0.664v0.333h-0.333l0.333,0.663
		l-0.333,0.333l-0.332,1.001l-0.665,0.333h-0.332v1.001h-0.332l-0.332,0.665v0.332v-0.332l-0.665,0.665v0.331l-0.332,0.332v0.332
		h-0.333v1.002l0.333,0.332v0.333l-0.665,0.664v0.333h0.332v0.332h-0.332v-0.332l-0.332,0.332l-0.332,1.002v0.663l-0.333,0.665
		l0.333,0.332l0.332-0.332v-0.665l0.664-1.002l0.333-0.332l0.332-0.663v-0.333l0.332-0.332l0.333-1.002l0.332-0.332v-0.665h0.332
		l-0.332,0.333v0.332l0.663-0.665v-0.332l0.333-0.663v-0.333l0.664-1.671l1.002-2.342v-1.334L167.777,107.742z"/>
	<path id="path150" display="inline" fill="#D2B48C" d="M127.9,37.002v0.341h0.341H127.9v0.342h0.681v0.34l-0.34,0.34v0.682H127.9
		v0.34l0.341,0.34v1.028l0.34,0.34l-0.34,0.342h0.34l0.342,0.34h0.34l-0.34-0.682l0.34,0.342l1.028,0.681h0.34v-0.341h1.028
		L132,42.461l0.681-0.342l0.341-0.341v0.341l0.341-0.341v-0.682h-0.682L132,40.416l0.34-0.34v-0.342v0.342l0.341-0.342l0.341,0.342
		v-1.369h-0.682v-0.342l0.341-0.34v-0.682h-0.341v0.342H132v-0.342h-0.341v-0.341l0.341-0.34l-0.341-0.34H132v-1.028l-0.682,0.34
		v-0.34h-0.681l-0.341,0.34h-0.341v0.34l0.341,0.342v0.341l0.341,0.682l-0.341,0.34h-0.681l0.34-0.34h-0.34v0.34h-0.682v-0.34
		h-0.341v-0.342h-0.683L127.9,37.002z"/>
	<path id="path160" display="inline" fill="#D2B48C" d="M126.872,38.717L126.872,38.717l0.34,0.342h-0.34h0.681v-0.342l0.341-0.34
		v-0.34l-0.341,0.34h-0.341L126.872,38.717z"/>
	<path id="path168" display="inline" fill="#D2B48C" d="M132.364,43.869l0.34,0.681l0.341,0.342l0.342-0.342h0.341l0.34-0.34v-0.34
		l-0.34-0.682l-0.683-0.34l-0.681,0.682V43.869z"/>
	<path id="path22" display="inline" fill="#D2B48C" d="M151.975,14.529l-0.227,0.198v0.226h-0.225l-0.198,0.198h-0.227l0.227,0.226
		h0.198h0.282v0.141v0.226h-0.199v0.424l-0.225-0.198v0.198h-0.424V15.97l-0.225-0.226v0.648l0.225,0.226v-0.226h0.228v0.874h0.197
		v0.198v0.226h0.225v0.225h-0.225l-0.197-0.225l0.197-0.226h-0.197l-0.228,0.226l0.228,0.225h-0.228V17.69v-0.226h-0.225v-0.199
		h-0.197V17.04l-0.227-0.226h-0.228v0.226h-0.198l0.198,0.225h-0.647l-0.425,0.423h0.226l0.199,0.225l0.226-0.225h0.226l0.198-0.226
		l0.228,0.451h0.227l-0.227,0.198h-0.228v0.226h0.228l0.227-0.226l0.422,0.226h0.197l-0.197,0.424l0.197,0.226h-0.423v-0.226h-0.197
		v0.226l-0.227,0.198v0.226h-0.228v0.423l0.228,0.226v0.649l-0.228,0.196h-0.197h-0.226l-0.226-0.198h-0.425v0.649h-0.196
		l0.196,0.198l-0.196,0.226l-0.227-0.226l-0.226,0.226v-0.226l0.226-0.198h-0.226l-0.424,0.424l-0.226-0.226l-0.197,0.226v0.226
		h0.197l-0.197,0.198h-0.229v-0.199l-0.226,0.198l-0.423,0.226v0.226h0.226l0.198,0.198h-0.198l-0.226-0.198l-0.197,0.198
		l0.197,0.226v0.198v0.226h-0.196v0.424h-0.226l0.226,0.648l-0.226,0.226v0.424h-0.227l-0.198,0.226h-0.225v0.198h-0.423
		l0.226-0.198l-0.226-0.226v-0.198l-0.229-0.226v-0.226h-0.198l-0.225-0.198h0.225v-0.226l-0.225-0.226v-0.198l-0.227,0.198
		l-0.197-0.198h-1.1v-0.226h-0.198v-0.226l-0.45,0.226v0.649l-0.425,0.226h0.425v0.198h0.225h0.228v-0.199h0.198v0.649l0.227,0.198
		l-0.227,0.226h0.647v0.226l0.227,0.198l-0.227,0.226h0.227v0.649h0.226v-0.226l0.197,0.226l0.227-0.226v-0.2h0.198v0.198
		l0.224-0.198l0.229,0.198v0.226l-0.229,0.198h-0.224v0.452l-0.198,0.198v0.226l0.198-0.226h0.224l-0.224,0.226v0.226l-0.198,0.198
		v0.423h0.648v0.226l0.226,0.226v0.198h-0.226l0.226,0.452v0.846l0.198,0.226h0.225v0.198l0.198,0.226v0.226l0.227,0.198v0.226
		v0.874l0.226,0.423l0.197-0.226v0.226h-0.197h-0.451l-0.198,0.649h0.198l0.227,0.198h-0.424v0.226h-0.225v0.423h0.225v-0.198h0.198
		v0.198h0.227v0.226h-0.227l-0.198-0.226v0.226l-0.225-0.226v0.451l0.225,0.198h-0.225l-0.225-0.198l0.225-0.451h-0.225
		l-0.199,0.451l0.199,0.194l-0.199,0.226v-0.226l-0.227,0.226l0.227,0.198h-0.45l0.224,0.226h-0.224h-0.198v0.226h-0.227v0.424
		l-0.197,0.226v0.198h-0.226v0.423h0.226v0.226h-0.226v-0.226l-0.228,0.226l-0.197,0.226h0.197v0.198l-0.197,0.226h0.197v0.226
		h-0.197v0.198h0.197v0.226h-0.197v0.226v0.198h0.197v0.225l-0.195,0.196l0.197,0.226h-0.197l0.197,0.225h0.227v0.198l0.226,0.226
		h-0.451v0.198h-0.197l0.197,0.226h-0.423l0.227,0.226l-0.227,0.198h-0.226l0.226,0.226h-0.226l0.226,0.226h-0.226v0.198
		l0.226,0.226h0.227l0.197,0.198H143.2l-0.647,0.649l0.226,0.226h-0.648v0.213h-0.226l-0.422,0.422v-0.226l-0.423,0.226
		l-0.227-0.226v0.452l-0.225-0.226h-1.073l-0.226,0.226h0.226l-0.226,0.198v-0.198v-0.226l-0.648-0.226h-0.198l-0.451-0.423v-0.225
		h-0.424l0.227-0.198l-0.227-0.226v-0.198h-0.648l0.227,0.198l-0.227,0.226l0.227,0.423v0.424h0.198v0.451h0.226v0.198l0.227,0.226
		v0.198h-0.227l0.424,0.226h-0.198l0.198,0.423V45.9h-0.198h-0.229l0.227-0.226v-0.198l-0.227,0.198l-0.225-0.198h-0.198
		l0.198,0.198h-0.425L136.74,45.9h0.197v0.226L136.74,45.9v-0.226l-0.225-0.198h-0.227v0.198h0.227v0.451l-0.227-0.226h-0.197
		l-0.229-0.226v0.226h-0.226l-0.198,0.226v0.198v0.226v0.198l-0.227,0.226V46.55l-0.226-0.226l-0.198-0.423l-0.227,0.226h-0.197
		l-0.227,0.423l0.227,0.198v0.226l0.197,0.226l0.227,0.198l-0.227,0.225v0.226h-0.197v0.198h-0.227v0.451v0.198l-0.226,0.226h0.226
		v0.198h0.227v0.226h-0.227l-0.226,0.225l0.226,0.198V49.57h0.227v0.198v0.225h0.197v0.423h-0.197v0.226h-0.451l0.225,0.198h-0.225
		v0.226h-0.197l-0.229,0.226h-0.423v0.198h-0.227v-0.198l-0.197,0.198h-0.228l-0.226-0.424l-0.423-0.423l-0.648-0.226v-0.423h0.229
		h0.201v-0.225h-0.423l0.226-0.198h-0.226v-0.874l-0.198-0.226h-0.228l0.228-0.649h-0.228v-0.648h-0.647v-0.198h-0.228v0.423h-0.197
		l-0.451,0.226l0.225-0.226h0.226v-0.423h0.198l-0.198-0.226l-0.226,0.424v-0.429h0.226l-0.226-0.226v-0.198l-0.225-0.226v-0.423
		h-0.649l-0.424,0.226h0.424l0.227,0.198l0.226,0.423h-0.451h-0.198v0.226h-0.227v0.226l-0.222-0.226v0.508h-0.198v-0.027
		l-0.198-0.198l0.198-0.226v-0.226h-0.195h-0.226v-0.423h0.226l0.197-0.226V45.73l-0.423-0.225v-0.226h-0.228v0.451l-0.423,0.847
		l-0.226,0.226h0.452v0.226h0.197v0.423h-0.197v-0.226h-0.227l0.227-0.198h-0.227l-0.227,0.198l-0.197-0.198h-0.648l0.197,0.198
		l-0.197,0.226v0.424l-0.226,0.423l0.226,0.226l-0.226,0.874h0.649l0.225-0.226v0.423h-0.874l-0.198,0.451l0.198,0.198l-0.423,0.424
		l0.225,0.451l0.198,0.198l0.226,0.226v-0.226h0.197l-0.197,0.226h-0.226v0.649l0.226,0.424v0.649l0.648,0.226h0.197l0.453,0.198
		v0.226l0.197-0.226v0.451l0.226-0.226v-0.226h0.227v0.677h0.197v-0.17h0.338v-0.085h0.311l-0.226,0.226v0.198h0.226l-0.226,0.226
		l-0.198,0.226v0.028h-0.339v0.536h0.085v1.012h0.227l0.423-0.226l-0.197,0.226l0.197,0.226v0.198l0.227,0.423v0.226h-0.227
		l0.227,0.226l-0.227,0.198v0.648h0.452v0.226h-0.452h-0.197l-0.226,0.226v0.197l-0.227-0.197v0.423v0.198v0.226h0.227l-0.227,0.226
		h0.451v0.198v0.226h-0.226v0.226h-0.198h-0.197v0.424l0.169,0.395v0.254h-0.169v0.423h-0.226v0.226h-0.227l0.227-0.226V61.73
		h-0.227v-0.199h-0.197v-0.226l0.197-0.198v-0.226v-0.226h-0.197l0.197-0.197l0.227-0.875v-0.226l0.226-0.648l0.197-0.198v-0.423
		h-0.197l0.197-0.226h-0.197l-0.451-0.226l-0.198,0.226v-0.423l-0.452-0.226h-0.197l-0.226-0.226v0.452l-0.228,0.198l0.452,0.226
		l0.197,0.226v0.198l0.226,0.225v0.846l-0.226,0.451v0.198l-0.423,0.451l-0.228-0.226v-0.226l-0.196,0.226h-0.227v0.226h-0.648
		v-0.226h-0.198l-0.227-0.226v-0.198l-0.424-0.226h-0.225l0.225,0.226l-0.225,0.198h-0.228v-0.198l-0.197,0.423v0.648h0.197
		l-0.197,0.226h0.197l-0.197,0.198h-0.227l-0.197,0.424l-0.225,0.226l-0.424,0.226v0.198l-0.226,0.649V63.9l-0.197,0.226v0.198
		h0.197l0.226,0.226v0.198l-0.226,0.226h0.226V65.2l0.425,0.42v0.423l-0.423,0.226v0.198l0.423,0.226l-0.229,0.226l0.229,0.198
		h-0.229l0.229,0.451l0.424-0.226h0.225v-0.226h0.199l0.225-0.198l-0.225,0.424h-0.199l-0.422,0.423v0.226h-0.227v0.648
		l-0.423,0.423h-0.423v0.423h-0.226l0.226,0.226l-0.226,0.423l-0.425,0.226l-0.224,0.423l-0.227,0.226v0.198h0.227l-0.227,0.451
		l-0.424,0.423v0.226l-0.197,0.198v0.226l-0.45,0.423h0.229v0.225l-0.229,0.424l-0.425,0.198l-0.226,0.226h0.226l-0.226,0.226
		l0.452,0.198l-0.452,0.451l0.226,0.198l-0.226,0.226l-0.423,0.198l0.423-0.424v-0.198v-0.226l-0.198,0.226h-0.225l-0.196,0.419
		l-0.226,0.198v0.451l-0.423,0.423l0.198,0.226h-0.198l-0.451,0.423h-0.2v0.198l-0.228,0.226V77.43h-0.422l-0.227-0.198v-0.875
		l0.227-0.423v-0.423l-0.227-0.649v-0.226l0.424-0.423l0.225-0.424l0.426-0.226v-0.226l0.451-0.424l0.198-0.423l0.226-0.226v-0.198
		l0.226-0.648h-0.451L118,70.966l-0.423-0.422v-0.226h0.198V70.12h-0.198L118,69.473h-0.226l-0.424-0.424v-0.451h-0.225l-0.2,0.451
		l-0.647,0.198l-0.874,1.101l-1.072,1.072l-0.227,0.649l-0.424,0.226l0.198,0.198v0.424h0.226l0.424-0.198v0.198h0.451v-0.424
		l0.197-0.198h0.227v0.198h0.422v0.226h-0.197v0.198l-0.451,0.226l0.227,0.226h-0.227l-0.197,0.198v-0.424l-0.226,0.226v0.198
		h-0.227l-0.424,0.226h-0.216l-0.198,0.226h-0.226l-0.197,0.198l0.197,0.226l-0.197,0.226h-0.226l-0.226,0.198l-0.423,0.226v0.198
		h0.226v0.226l-0.226,0.226l-0.198,0.423v0.198h-0.226l-1.071,0.875h-0.452l-0.423,0.226v0.423h-0.226l-0.197,0.226l-0.452,0.649
		v0.649l-0.198,0.198l0.198,0.226h0.227l0.226,0.198v0.649h0.423v-0.202h0.227v0.423l-0.227-0.226v0.451h0.227l-0.227,0.198h0.423
		l0.452-0.198h0.197l0.225,0.198l-0.225,1.1l0.423,0.424l0.226,0.648h1.072l0.226-0.225h0.227l0.198,0.225h-0.423l-0.226,0.225
		h-0.198v0.198h-0.226l-0.198,0.45h-0.452l0.452,0.198l-0.226,0.226l-0.649-0.226v0.226l-0.225-0.226v-0.198l-0.197-0.226h-0.226
		h-0.228l-0.197,0.226l0.197,0.198h-0.197l0.197,0.226l0.228,0.423h-0.228l-0.197-0.423v0.196v0.226l-0.227-0.424v0.424v0.422
		l-0.423,0.452v-0.237l0.226-0.226l0.198-0.422h-0.198l-0.45-0.424v1.072l-0.425,0.649V86.08l-0.422-0.423v-0.225l-0.224-0.226
		v-0.198h-0.198l-0.225,0.198v0.226l-0.228,0.874h-0.197l0.197,0.198h-0.197v0.451l-0.226,0.198l-0.423-0.198l-0.227,0.198h-0.198
		l0.198-0.198l0.227-0.451h0.423l0.226-0.198v-1.099l0.423-0.424v-0.649l0.225-0.226l0.198-0.423v-0.198l-0.198,0.198v-0.198h0.198
		h0.224v-0.226l0.424-0.226v-0.198l0.65-0.423v-0.226l-0.227-0.226l-0.198-0.198l-0.423-0.226h-0.451v-0.225l-0.423-0.196
		l-0.228-0.226h0.228l-0.228-0.424v-0.423h0.228v-0.226h-0.228v-0.423h-0.197l-0.648,0.198l-0.874,0.451l-0.649,0.423l-0.422,0.198
		l-0.226,0.451l-0.847,0.424l-1.52,1.523l-0.875,0.423v0.226l-0.423,0.198l-0.649,0.648l-0.225-0.198v0.198l-0.424,0.226
		l-0.422,0.422h-0.227l-0.642,0.649v0.226l0.225,0.198h-0.225l-0.197-0.198V85.43h-0.226l-0.423,0.648l-0.226,0.226v0.226
		l-1.073,0.648l-0.452,0.649l-0.196,0.198l-0.226,0.452v0.198l-0.198,0.423l-0.451,0.452h0.226v0.197h0.648h0.226l0.424-0.197h0.197
		l-0.197,0.197l0.197,0.226h-0.197H96.01v0.649l-0.422,0.226v0.198l-0.226,0.226H94.94v0.423l0.226,0.226h0.198l0.226-0.226
		l0.648,0.226l1.297,0.649l0.423,0.423l0.226,0.423l0.423,0.649v0.226l-0.648-0.423h-0.226l-0.198-0.226l0.423,0.875l0.423,0.198
		l0.225,0.423l-0.225-0.197l-0.649-0.423h-0.875l0.451,0.423h0.424l0.226,0.197h-0.452l-0.846-0.423l-0.649-0.423l0.423,0.846
		l-0.423-0.423l-0.648-0.198l0.198,0.423l0.226,0.198h-0.226l-0.192-0.198l-0.226-0.423l-0.197-0.226l-0.141,0.141l0.141,0.283
		l-0.226-0.198l0.085-0.085l-0.537-1.016v-0.197l-0.197-0.649v-0.451l-0.648-0.197h-0.225v-0.226l0.226-0.226v0.226l0.226-0.226
		v-0.848l0.198-0.226v-0.198l-0.198-0.225v-0.425h-0.223l-0.226-0.226h-0.423h-1.523l-0.198,0.226h-0.226l-1.296,1.299v0.197h-0.226
		l-0.198,0.226v0.226l0.198,0.198l0.451-0.198l0.198-0.226v-0.226h0.226l0.423-0.423v0.226l0.226-0.226l0.198,0.226h-0.198
		l-0.451,0.197l0.226,0.226v0.226h-0.226l-0.198,0.198v-0.198h-0.226v0.198l-0.226,0.226l0.226,0.226h0.424v0.198h0.226l0.226,0.226
		l-0.45-0.226l0.226,0.226h-0.226l-0.141,0.141l0.141,0.283l-0.2-0.229l0.058-0.057l-0.058-0.141h-0.226l-0.423-0.424h-0.226
		l-0.226,0.198h-0.197v0.169h-0.141v-0.028h-0.028l-0.226-0.198h-0.197l-0.226,0.198v-0.198l-0.226-0.451V91.41h0.226l-0.226-0.226
		h0.226v-0.198h-0.226l-0.846-0.225v-0.198l-0.226,0.198l-0.226-0.198h-0.197v0.198l0.197,0.225h-0.197v-0.225h-0.226l-0.424,0.423
		l-0.423,0.226h0.423v0.226l-0.423-0.226l-0.226-0.226v0.226l-0.226,0.226l-0.197-0.227h-0.422H83.75l0.226-0.226h-0.875
		l-0.847-0.424l0.198,0.226l-0.424,0.198v0.226l-0.226,0.226l-0.424,0.198l-0.226,0.226h0.226l-0.423,0.226l0.197,0.198l0.226-0.198
		v0.424h0.226v0.226v0.649l-0.226,0.197v0.874l0.226-0.226v0.226h-0.226h-0.423v0.592l-0.058,0.057L80.7,95.529l0.423,0.424
		l0.226,0.226v0.198l-0.226-0.423h-0.226l0.226,0.226h-0.226v0.198H80.7v0.226h-0.226l0.226-0.226v-0.649h-0.226l-0.198,0.226
		l0.198,0.226h-0.197l-0.226-0.226l-0.226,0.423l-0.198,0.226v-0.226l0.423-0.423h0.226v-0.423h0.198v-0.225v-0.226l-0.227-0.198
		L80.05,94.46l0.198-0.226h-0.194l-0.226,0.226l-0.226-0.226l-0.424,0.226l-1.297,0.197l-0.423,0.226H76.16l-0.226,0.198v0.226
		h0.226v0.423l0.198,0.226h0.226l0.197-0.226v0.226h0.452l-0.226,0.226h-0.226v0.198v0.226l-0.197,0.198l-0.226-0.198l-0.198,0.198
		h-0.451v0.452h0.451l0.198,0.423H76.16v-0.226h-0.226v0.226l-0.226-0.226H75.51v0.226h-0.226v0.226l-0.226-0.226H74.86h-0.226
		l-0.226-0.226h0.226v-0.424h0.226l-0.226-0.423V96.38l0.226,0.226V96.38l0.198-0.198l-0.198-0.451h-0.226l-0.226-0.198v-0.225
		v-1.299h-0.423l-0.226,0.226h-0.418l-0.875,0.847h-0.423l-0.225,0.226l-1.072,1.298l-1.072,1.071l-0.649,0.452l-0.647,0.196
		l-0.226,0.226h0.226l-0.226,0.226h0.226l0.198,0.197h0.226L69,99.2h-0.196l-0.226-0.226h-0.424h-0.649l-0.226-0.197L66.856,99.2
		v0.198L66.63,99.2v0.198h-0.196l-0.226,0.226h0.226l-0.226,0.226H66.01v0.198h-0.226V99.85h-0.649l-0.226-0.226h-0.423l0.226-0.226
		l0.424,0.226l0.225-0.226h-0.225L64.91,99.2l-0.649,0.198h-1.07L62.768,99.2l-0.226,0.198V99.2l-0.225,0.198L61.894,99.2h-0.226
		v-0.226L61.469,99.2H60.82l-1.072-0.226h-0.225L59.75,99.2h0.198v0.198H59.75L59.524,99.2v0.198L59.1,98.749l-0.226,0.226h-0.225
		v0.226l-0.196-0.226l-0.226,0.226v0.423h0.226v0.423h-0.226v0.226l-0.198,1.071h-0.226l-0.226,0.424l0.226,0.648l-0.226-0.424
		v0.649l0.452,0.648v0.226l0.198,0.422h0.226v0.226v0.198l0.198,0.226l0.226,0.649l-0.226,1.071l-0.424,0.226l-0.198,0.227v-0.649
		l-0.226,0.197v0.226l-0.226,0.198l0.226,0.451l0.423,0.649v0.846v0.875l-0.198,0.227h-0.226l-0.226,0.197l-0.423,0.875
		l-0.424,0.197h-0.226v0.226l0.226,0.227h-0.226l-0.198,0.423l-0.226,0.226v0.198h0.226v0.225h-0.226v-0.225h-0.226v0.225
		l-0.198,0.424h-0.226v0.226l-0.226,0.424l-0.198,0.647v0.228l-0.221-0.232v0.424l-0.226,0.227v-0.227l-0.619,1.294l0.198-0.199
		h0.226l-0.423,0.199v0.226v0.197l-0.113-0.084l-0.226,0.197l-0.112,0.339v-0.226l-0.649,0.875h0.226l-0.226,0.226l-0.198-0.226
		l-0.226,0.226l-0.225,0.62v0.875l-0.198,0.422v-0.648l-0.226,0.227v0.422l-0.198,0.452h0.198l-0.198,0.197h-0.226v0.424
		l-0.226,0.227v-0.197l-0.423,0.423l-0.424,0.846v0.648h-0.226v-0.423h-0.226v0.423h-0.113v-0.085l-0.028,0.085v0.028l-0.169,0.733
		l-0.226,0.228l-0.423,1.071v0.227l-0.225-0.228v0.227l-0.198,0.424v0.226l0.424,0.424v0.226v0.197h-0.227l0.227-0.197l-0.424-0.452
		v0.875h0.198l-0.198,0.226v0.198v0.227l-0.226,0.226l0.423,0.424h0.227v0.226l-0.227-0.226h-0.198l0.423,0.648l0.225-0.226h0.203
		l-0.198,0.224l0.198,0.423l0.395,0.396h0.028h0.113v0.283h-0.113H49.51l0.198,0.227v0.084h0.113v0.227l0.226,0.226l0.424,0.197
		v0.227v1.946l-0.198,0.226l-0.226,0.424l0.424,0.191h-0.424v1.298v0.648h-0.14l0.027,0.142v0.451v0.62l0.226,0.452v0.197h0.198
		l-0.198,0.226l0.198,0.227H50.16l0.198,0.197v0.225h-0.141l0.141,0.424v0.227h0.226v0.226l-0.226-0.226l0.226,0.875v0.198v0.45
		l0.225,0.198h-0.225v0.226l0.225,0.848v0.451l-0.225,0.648v0.198l0.225,0.226h-0.225v0.423v0.424l0.423,0.226H50.81l0.198,0.649
		l1.072,1.1v0.198l0.226,0.226v0.197l0.648,0.874v0.227h-0.198v0.197l0.649,0.874l0.198,0.847h0.226v-0.198l0.424,0.424v0.226
		l0.226,0.197h-0.226l-0.226-0.197v-0.226l-0.198-0.227v0.227l0.424,0.874l0.423,1.072v1.522h-0.198v0.649v1.071l0.198,0.228h-0.423
		v0.647v1.297v0.227l0.198,0.424v0.228l0.451,0.647v0.197H55.1v0.226h-0.198l0.198,0.197l1.101,1.524l0.648,0.874l-0.226,0.197
		l0.226,0.452l0.198,0.197h0.226l0.226,0.226l0.198,0.424l0.226,0.227l0.423,0.647l0.424,0.848v1.749l0.226,0.196v0.227
		l-0.226,0.226v-0.226h-0.198v0.226h-0.228v0.648l-0.198-0.226v0.647H57.92v0.423h-0.226l0.226,0.228h-0.226v0.424h0.226
		l0.198,0.226v0.197l-0.198-0.197l-0.226,0.424l0.226,0.425l-0.226,0.45v0.424v0.227l-0.198-0.227l-0.226,0.227v-0.227l-0.226,0.227
		l0.226,0.197h-0.226l0.226,0.647l0.226,0.424v-0.197h0.198v0.197h-0.198v0.227h0.423l0.649-0.227l0.423-0.424v0.228l-0.423,0.424
		v0.647h0.198l0.226,0.227h-0.226l0.451,1.298v0.198l-0.225,0.226v0.423l-0.423,0.228h0.113v0.057l-0.085,0.085v0.423l-0.197,0.227
		v0.196l0.197-0.196l-0.197,0.423l0.423-0.227l-0.226,0.227H58.4v-0.227h-0.226l-0.226,0.425l0.226,0.225H58.4l-0.226,0.229
		l-0.226-0.229v0.229H57.75v0.198l-0.226,0.228h0.424l-0.198,0.224l-0.226-0.224h-0.199l-0.226,0.422h-0.225v0.226l-0.198,0.648
		v0.197l-0.226-0.197v0.424h-0.226v0.228l-0.198,0.197L55.8,181.54l-0.226,0.197l0.451-0.197l-0.226,0.197h-0.226l0.226,0.226
		h-0.226v0.197v0.027v0.197l-0.198,0.423l0.169-0.563l-0.169,0.367l-0.423,0.196v0.451l-0.226,0.198v0.228h0.226l0.198,0.227h-0.198
		h-0.226v0.424l-0.226,0.423h0.226l-0.226,0.227l-0.198,0.196h-0.226l0.226,0.228h-0.423v-0.228l-0.452,0.649l-0.198-0.199
		l-0.226,0.199v0.226l-0.219,0.216v-0.227l-0.198,0.424v0.227v0.225l-0.423,0.423l0.198-0.423v-0.225l-0.423,0.225v0.423h-0.226
		l0.226,0.196l-0.424,0.875v0.875l-0.227,0.647h-0.226v0.648l-0.423,0.648v0.197H50.44l-0.226,0.228h-0.226l-0.198,0.226v0.196
		v0.228l0.198,0.198l0.226-0.198h0.226v0.198h-0.226l-0.226,0.227H49.79l-0.085,0.084h-0.198v-0.228v-0.422h-0.223h-0.198v0.422
		l-0.451,0.452l-0.198,0.423l-0.226,0.228l-0.226,0.648h-0.197v0.847l-0.452,0.45v0.621l-0.198,0.228l0.198,0.874l-0.198,0.647
		l-0.226,0.424l0.226,0.227h-0.223v1.071l-0.193,0.201v0.424l-0.226,0.227l-0.226,0.423v0.423l-0.424,0.423v0.424l-0.198,0.452
		h-0.226l-0.226,0.196h0.226l-1.072,0.452v0.197h0.198v0.425v0.227H44.35l0.198-0.227l-0.198-0.198h-0.452l0.226-0.227h0.226
		l-0.226-0.197v-0.227h-0.226l-0.423,0.424l-0.226,0.227v-0.227l0.451-0.424h-0.226h-0.648l-0.226,0.227h-0.198h-0.226h-0.191v0.197
		h-0.227l0.226,0.227v0.112l0.197,0.086h-0.197v-0.086l-0.226-0.112l-0.226,0.198h0.226v0.451l0.226,0.196l-0.226,0.227l0.226,0.228
		v0.196l-0.649-0.846l-0.226,0.197h-0.226v-0.197l-0.198-0.228h-0.226l-0.226,0.425v0.451l0.226,0.196l0.226-0.196l0.198,0.196
		h-0.198l-0.452,0.227v-0.423h-0.198v-0.451l0.198-0.425h-0.198v-0.226l-0.226,0.648v0.451l0.226,0.196v0.228l0.198,0.198v0.226
		v0.225h-0.198l0.198-0.225l-0.198-0.227h-0.226v-0.621l-0.198,0.424v0.197v0.227v0.225h0.198l-0.198,0.199v0.227l-0.226-0.426v0.85
		l-0.226,0.451l0.451-0.227h0.198l-0.198,0.227h-0.226v0.196l0.226,0.229h-0.226v0.227h-0.226v0.423v0.198h0.649l0.226,0.228h-0.649
		l0.226,0.647v0.227h0.198v0.225l-0.198-0.225v0.225l0.198,0.198l-0.198,0.227v-0.227l-0.226,0.647v0.228l0.226,0.195v0.227
		l0.198-0.227v0.227l0.226,0.228h-0.226l-0.198-0.228h-0.226h-0.226l0.226-0.227l-0.226-0.195v-0.228l-0.198,0.228l-0.226-0.228
		v0.423l-0.423,0.452l-0.226,0.646l-0.846,0.426l-0.226,0.195l-0.224,0.646l0.226,0.45l0.225-0.225v0.225h-0.225l-0.226-0.225v1.72
		l0.226,0.227v0.423l-0.226,0.229v-0.229l-0.198,0.229v0.227v0.197l-0.226,0.226v-0.226l0.226-0.197l-0.226-0.227h-0.226
		l0.226-0.229v-0.846l-0.226,0.196v0.452l-0.197-0.229v0.229l-0.226,0.195l0.226,0.425v0.449l-0.221,0.2l-0.226-0.197v0.197
		l-0.198,0.228h0.198v0.563h-0.113l0.057,0.197l-0.451,0.648v0.875H34.79l0.198,0.226v0.197H34.79l0.196,0.646l-0.198,0.417v0.451
		h0.198l0.226-0.229v0.875l0.649-0.646l0.198,0.196v0.449l0.226,0.196v0.229l-0.226,0.226v0.199l-0.198-0.424l-0.226,0.226h-0.198
		l-0.226-0.226h-0.226v0.226h-0.197v0.425h-0.226v0.422h0.226l0.198,0.229l-0.198,0.421v0.424l0.198,0.873l0.451,0.198l-0.226,0.225
		l0.226,0.228v1.299l0.424,0.847v2.171l0.198,0.228v0.198l0.226,0.227l-0.226,0.226l0.451,0.198v0.451l0.198,0.424v0.423
		l0.226,0.424l0.225,0.649v0.228l-0.225,0.226l0.225,0.196v0.424l0.198,0.451v0.196l0.649,0.65l0.226,0.45l0.649,0.425l0.228,0.396
		v0.424l0.198,0.228v0.197h0.423v0.678h0.452l0.198,0.197h0.226v0.228l0.648,0.196l0.648,0.647v0.229l0.226,0.423v0.227
		l-0.226,0.425l0.226,0.226v0.423l0.198,0.424v2.596h0.226v0.227h-0.227l-0.198-0.227v0.227l0.423,0.229v0.195l0.423,0.451h0.226
		l0.198,0.198l0.226,0.424v-0.198l0.226,0.198l0.198-0.198v0.648l0.226,0.197l0.423,0.228l0.424,0.647v0.647h-0.202v0.647h-0.226
		l-0.198-0.228v0.228l0.198,0.227v0.424l0.226-0.226v0.423h0.198h0.451l0.198,0.227l-0.649-0.227v0.227l-0.198-0.231l-0.226,0.451
		h-0.198l-0.226,0.197h-0.649l-0.649,0.228v0.647l-0.226,0.424l-0.198,0.227h0.198v0.196h0.226l-0.226,0.451v0.195l-0.198,0.228
		l0.198,0.425v0.227h0.226v0.197l-0.226-0.197h-0.198l0.198,0.426v0.422l0.423,0.45v0.195l-0.423,0.426l0.423,0.449l0.226,0.649
		l-0.226,0.196v0.228h-0.198l0.198,0.647l-0.198,0.423l0.198,0.426v0.45h0.028v0.141v0.027v0.026h0.028l0.226,0.228v0.424
		l-0.226,0.848l0.226,0.451l0.424,1.072v1.521l0.198,0.424h0.452l0.423,1.069v2.396l0.226,0.197v0.45l0.198,0.198v0.422l0.226,0.229
		l0.198,0.425v0.45h0.226v0.417l0.226,1.071l0.198,0.228h0.226v0.225l0.226,0.198l0.198,0.423l0.423,0.452v0.647l0.226,0.424
		l0.226,0.227h0.423l0.648,0.619h0.226l0.339,0.366v0.28l0.113,0.087v0.195l0.451,0.227l0.198,0.198v1.103l0.226,1.069l0.226,0.227
		l-0.226,0.649l0.226,0.425l-0.451,0.226h-0.204l0.198,0.197l-0.198,0.227h0.424v-0.227h0.226l0.198,0.227v0.228v0.647l0.423-0.228
		l0.226-0.228l-0.226,0.452h-0.198v0.196h0.198l0.451,0.425v0.227h0.198l0.451-0.227h0.648l0.424,0.227l0.649,0.425l0.198,0.45
		l0.648,0.196l0.226,0.423h0.226h0.196l0.451,0.228l0.847,0.874l0.423,0.199h0.226v-0.199l0.226,0.199v0.225l-0.226-0.225v0.225
		l-0.226,0.228v0.197l-0.198,0.228v0.195h-0.649l1.298,0.228h0.847l0.874,0.423h0.649l1.945,0.227l1.298,0.229l1.523,0.422
		l0.846,0.425l0.649,0.423l1.1,0.648l0.424,0.451v0.195l0.225,0.452l0.425,0.422l0.846,0.425l0.226,0.227l0.648,0.198h0.424
		l0.451,0.228l0.198,0.422l0.226,0.229v0.423l0.197,0.423l0.452,0.228h0.648l1.073-0.424h1.1v-0.227l0.649,0.227h0.191v-0.227h3.046
		l0.846-0.423h0.226l0.875-0.229l1.269-0.875v-0.196l0.875-0.875l0.423-0.195l0.649-0.452h0.226l1.72-1.298l1.749-1.07l0.649-0.228
		v0.195l0.113-0.11l0.847-0.424l0.451-0.227l1.72-0.648l2.595-0.873l2.594-0.62h0.451l0.846-0.229h0.649l0.874,0.425h1.299v0.424
		l0.423-0.197h0.226l0.422-0.227h0.65l0.423-0.425v-0.226l-0.423-0.196l-0.423-0.452v-0.197h0.423l-0.227,0.197l0.451,0.452h0.423
		v0.196l0.226,0.226l0.422-0.422l0.423-0.452h-0.227v-0.197l0.227,0.197h0.422v-0.197l0.229-0.228l0.875-0.647h0.847v-0.197h-0.65
		v-0.227h0.229v-0.227h-0.229V282.5h0.229l0.196,0.422h0.451l-0.225,0.426h0.647l-0.227-0.197l0.227-0.45l0.226-0.198h0.199
		l0.225,0.198v-0.198l-0.225-0.45l0.646-0.647l0.452-0.197h-0.225v-0.226h0.422v0.226l0.226-0.226l0.423,0.226v0.423h0.199v-0.423
		h0.227v-0.424l-0.227-0.227h0.227v-0.226l-0.227-0.197v-0.228h0.227l-0.227-0.226h0.227v0.226l0.227,0.228l-0.227,0.197
		l0.227,0.226v-0.226h0.197v-0.425l-0.197-0.226v-0.199l0.197-0.648l0.646-1.101l0.228-0.425h0.424v-0.197l-0.198-0.451v-0.197
		l0.198-0.646l0.225-0.451v-0.198l0.199-0.422l0.226-0.649v-0.228h0.227v-0.422l0.424-0.873l0.226-0.648v-0.228l0.198,0.228
		l0.228-1.3v-0.874l0.226-0.847h0.198l-0.198-0.228l0.198-0.196v0.196l0.225-1.07l0.198-0.229v-0.195l0.227-0.451h-0.338
		l0.112,0.227l-0.198-0.227h0.086l-0.086-0.198h-0.225v-0.226l0.225,0.226h0.198l0.227-0.226h0.226l0.198-0.228v-0.425l0.225-0.423
		l0.228-0.874l-0.228-0.198h0.228v-0.226l0.197-0.229v-0.196l0.424-0.646l0.648-1.298h0.227l0.423-0.849v-0.025v-0.029h0.057
		l0.085-0.084l-0.225-0.646l0.647-1.523l0.423-1.072l0.423-0.873l0.228-0.226v-0.621l0.423-1.522v-0.873l0.452-0.874l0.196-0.196
		v-0.425l-0.196-0.228l-0.228,0.228v-0.228H119.9v-0.226h-0.196v-0.197h0.422l0.228-0.228v0.425l0.196,0.226v-0.874h0.228
		l0.197-0.195v-0.874l0.226-0.426l0.227-0.875l0.424-0.846l0.197-0.648v-0.215h-0.197l-0.649,0.229l0.848-0.452v-0.423l0.226-0.197
		v-0.452l0.227-1.069l-0.227-0.228h0.227v-0.648l0.227-0.195v-1.299h0.197l0.226-0.648l0.197-0.874l0.227-0.424l0.227-0.226
		l0.198-0.649v-0.648l0.228-0.873l0.197-0.647l0.226-0.848l-0.226-0.647l0.452-1.101l0.196-2.146l0.228-1.299l0.423-1.945h-0.198
		l0.424-1.298l0.227-0.451v-0.196h0.198l0.226-0.873l0.197-1.301l0.452-0.646l0.424-1.299v-0.112h0.084v-2.877h0.902v-1.325h0.733
		l0.085-0.112h0.198l0.451-0.848l0.198-0.227v-0.227l0.227-0.424v-0.422l0.648-1.723l-0.226-0.228h-0.424l-0.225-0.227l-0.648-0.423
		v-0.228l0.452,0.451l0.422,0.196h0.65v0.227l0.649-0.874v-0.846l0.423-0.452l0.226-1.071v-0.226v-0.196h0.197l0.423-1.945
		l0.228-0.425l0.422-0.646l0.452-1.298v-1.945l0.198-0.227h-0.198l-0.228-0.227h0.425v-0.64h-0.425l-0.227-0.197h0.227l0.425-0.226
		l0.225,0.226V202.8l1.072-2.172l0.227-0.847l0.423-0.648l0.226-0.874v-0.648l-0.226,0.424v-0.848h0.226v-0.873l0.423-1.103v-0.198
		l0.425-1.298v-0.871l0.227-0.647l0.423-1.523l0.424-1.72l0.226-0.227v-0.425l-0.226,0.228l-0.424,0.424v-0.424h0.424v-0.228
		l0.226-0.196v0.196h0.226v-0.196l0.424-0.451l0.198-0.848l0.228-0.648v-0.874l-0.228-0.197l0.228-0.451l0.225-0.849v-0.227
		l0.425-0.423v-0.227l0.423-1.071h-0.197v0.227h-0.228v-0.227l0.423-0.875h0.227l-0.227,0.648l0.424-0.848l0.648-0.647l0.647-2.171
		l0.452-0.648v-0.227l-0.227-0.197h-0.028v-0.028h0.028l0.084-0.085l-0.648-0.451h-0.227v-0.197h0.227l0.648,0.423h0.197v0.228
		h0.206v-0.228l0.423-0.647l0.225-0.424v-0.646h-0.225v-0.227l-0.198-0.197v-1.299l0.648-2.17v-1.095l0.198-0.424l0.452-0.648
		v-0.423h0.197l0.226-0.875l0.425-0.646l0.226-0.648l0.424-1.072v-0.226h-0.197l0.197-0.424v0.424l0.423-0.846v-0.452l0.227-0.423
		v-0.198h0.198v-1.101l0.226-1.298h-0.226l0.226-0.198v-0.447h0.227l-0.227,0.451h0.227l0.198-0.649l0.45-1.1v-0.198h-0.225
		l0.225-0.226v0.226l0.198-0.451l0.424-1.72l0.226-0.228v-0.197l-1.071-1.102l0.846,0.649l0.226,0.451l0.874-1.749v-0.648
		l0.848-1.721l0.648-2.396l0.254-0.479h-0.424l0.227-0.424v-0.649l0.423,0.198v0.227l-0.143,0.479l0.762-1.494l0.423-1.298h-0.227
		l0.227-0.226l0.647-1.299l0.198-1.522l0.227-0.649l0.227-0.423v-1.072l0.196-0.648l0.226-0.451l0.227-0.197h0.648v-0.227h-0.229
		v-0.424l-0.226-0.226l-0.198-0.424v-0.423l0.198-0.424l0.226-0.45v-0.762h0.058v-0.198l0.226-0.648v-0.198l0.197-0.648l0.649-1.522
		l0.451-1.298v-0.649l0.423-1.1v-0.424h-0.226l-0.197-0.423l-0.226-0.228l-0.424,0.228l0.198-0.228h0.226v-0.846l-0.226-0.226
		v-0.424l0.226-0.874l-0.424,0.226v-1.101h0.198v-0.197h-0.424v-0.424h-0.197l0.197-0.875h-0.197l-0.227-0.423h-0.226v-0.226h-0.199
		v-0.423l0.199-1.102l0.451-1.071v-0.226l0.197-0.198l0.227-0.649l-0.227,0.198h-0.197l0.197-0.198h0.227l0.424-0.648l0.226-0.423
		v-0.648l0.197-0.226l0.226-0.227v-0.415l0.198-0.423v-0.424l0.226-0.226v-0.226l0.225-0.198v-0.226l0.198-0.226l0.227-0.424
		l0.226-0.197v-0.648l0.197-0.226l1.299-0.423v-0.226h0.647l1.75-0.226l0.648-0.198l0.197-0.226h-0.648l-0.198-0.197l-0.451-0.227
		l-0.424-0.423l-0.197-0.452l-0.227-0.197l0.227-0.226l-0.244-0.201v-0.648l0.423-0.451l0.225,0.226h0.199v-0.226l0.228-0.197
		v-0.226l0.226-0.226v-0.197l0.198-0.227v-0.193v-0.226l0.647-0.649l0.227-0.423v-0.227l-0.227-0.226l0.227-0.197v-0.874h0.225
		v-0.198l0.198-0.225v-0.226l-0.198-0.198l0.198-0.226h-0.198l-0.225,0.226l-0.227-0.451v-0.648l-0.196-0.423v-0.198l-0.228-0.226
		v-0.226l0.228-0.198v-0.226l0.196-0.226h-0.196l0.423-0.423v-0.649h0.225v-0.649l-0.225-0.198l-0.227-0.451h-0.196l-0.228-0.198
		h-0.422v-0.226h-0.651h-0.225v-0.226h-0.198l-0.451-0.424h-0.196l0.196-0.197l-0.196-0.226v-0.65l-0.452-0.424v-0.649l0.226-0.451
		v-0.17v-0.649l0.677-1.072l0.198-0.226l-0.423-0.198v-0.458l-0.226-0.423v-0.424l-0.198-0.226v-0.424l-0.228-0.423l-0.225-0.226
		L160,89.672l-0.227-0.423V89.03L160,88.607l-0.227-0.423L160,87.761l-0.227-0.226v-0.226h-0.197l-0.226-0.198l-0.227-0.423v-0.226
		l0.227-0.423l0.226-0.226L160,85.165l1.072-1.073h0.874v0.198l0.198-0.198l0.874-0.226h0.875l0.197-0.198l0.226,0.198l0.423,0.226
		h0.218l-0.225,0.423v0.423l0.225,0.227v0.198l-0.225,0.451v0.847l0.422,0.226l0.227,0.423l0.424,0.226l0.226,0.197v0.226
		l-0.226,0.875l0.226,0.649v0.423l0.226,0.423l0.396,0.396l0.028,0.057v0.085l0.026-0.113h0.198l0.226,0.197v0.225l-0.226,0.423
		l0.226,0.649v0.451l0.848,0.847l0.648,0.226l0.874,0.423l0.226,0.225v0.649l0.197,0.197l0.227-0.197h0.848l0.226-0.226v-0.226
		l-0.226-0.197l0.676-0.648l-0.226-0.226l0.423-0.422l0.424-0.226l0.227-0.198v-0.45l0.225-0.424h0.198l0.423-0.226v-0.197h-0.423
		l0.226-0.649l0.422-1.1l0.427-1.297l0.647-1.298l0.451-0.649v-1.269l0.197-0.451l0.424-0.424l-0.197-0.423l0.197-0.226v-1.072
		h0.226l0.227-0.451v-0.198l-0.227-0.649v-0.424l-0.226-0.649v-0.226l-0.197-0.226h-0.227v-0.198h-0.197v-0.226h-0.229l0.225-0.226
		v-0.196l-0.649-0.875l-0.875-0.846v-0.451h-0.225v-0.198h0.225l-0.225-0.452l0.225-0.198l-0.225-0.226v-0.424h-0.198V74.98
		l-0.227-0.198v-0.451l-0.195-0.196h-0.226l-0.228-0.226l0.228-0.423h-0.228l-0.422-0.648v-0.226v-0.649l-0.228-0.198v-0.451h-0.197
		v-0.423l-0.451-0.423v-1.72l-0.198-0.226v-0.649h-0.227v-0.424l-0.196-0.451v-1.946h-0.226v-1.72l0.422-1.298v-0.875l-0.195-0.421
		h-0.226l-0.649-0.649v-1.071l0.228-0.874l0.195-1.719v-0.226h-0.195l-0.228-0.198v-0.226h-0.226v-0.226v-0.198h-0.028v-0.084h0.058
		V55.21v-0.197v-1.1l0.197-0.649v-0.198h-0.197l0.197-0.874v-1.07l-0.197-0.226l-0.226-0.649l-0.227-0.226v-0.424l-0.197-0.226
		l-0.226-0.423h-0.197v-0.425l0.197,0.424v-1.072l-0.197-0.424h-0.228l-0.226-0.226V46.35l-0.197-0.423l-0.424-0.226v-0.423V45.08
		v-0.677h-0.226v-0.198v-0.451l0.226-0.649v-0.847h-0.45v0.169v0.226h-0.227l-0.227-0.226v-0.649h-0.423l0.423-0.198h-0.196v-0.226
		h0.196v-0.226l-0.423-0.424v-0.42l-0.226-0.225v-0.226l-0.197-0.198v-0.226l-0.226-0.198l-0.197,0.423l-0.227,0.226l0.424-0.649
		v-0.226l0.225-0.874l-0.225-0.424l0.225-0.648l-0.225-0.198v-0.226l0.225-0.423l-0.225-0.226h-0.198V35.74h-0.227l-0.424-0.847
		l0.198-0.226l-0.424-0.198h-0.423v-0.452l-0.228-0.198l0.228-0.225h0.195v-0.226l-0.195-0.198h-0.874l-0.198-0.423h0.198
		l-0.426-0.451l0.228-0.198v-0.226h-0.228l0.228-0.423l-0.649-0.226v-0.195h-0.226l0.226-0.226h-0.451v0.226l-0.195-0.226v-0.424
		h-0.226v-0.225h-0.225l-0.198,0.423v0.423l-0.227,0.226h-0.197l0.197,0.226v0.198l-0.197-0.198h-0.226l-0.227,0.197l-0.196-0.198
		l0.647-0.452V30.8l-0.226-0.424l-0.227-0.226v-0.649l-0.846-0.874h-0.227l-0.197-0.198v0.198l-0.227,0.226l-0.227-0.226
		l0.227-0.198h-0.227l-0.197,0.198V27.78l0.197-0.226v-0.198l0.227-0.226l-0.227-0.226v-0.423l-0.423-0.226h0.226v-1.072h0.197
		v0.423l0.227,0.226h-0.227l0.227,0.198h-0.227v0.226h0.649V26.03l-0.197-0.198h0.197l-0.197-0.648v-0.226h-0.227v-0.649
		l-0.227-0.423l-0.197,0.226v0.198h0.197v0.451l-0.197-0.226v-0.226h-0.226l-0.197,0.226l0.197,0.226h-0.423V24.31l0.197-0.198
		h-0.197v-0.226h-0.228l-0.225,0.226h-0.197v-0.226h0.197l0.225-0.423h0.228v0.198l0.197,0.226v0.226l0.227-0.226v-0.226h-0.227
		l0.227-0.424l-0.227-0.226v-0.198h-0.197v-0.226h-0.648l-0.423,0.226v0.198h-0.226l-0.226-0.198h0.226v-0.226l-0.422-0.423v0.226
		l-0.227-0.226h0.227v-0.226h-0.227v-0.423l-0.227-0.226V20.87h-0.196l0.196-0.198h-0.196v-0.226h-0.227l-0.425-0.424l-0.226,0.198
		l-0.197,0.451h0.197v0.198l0.226,0.226v0.198l-0.226,0.451h-0.649l-0.196-0.226v-0.203l0.196-0.198v-0.226h-0.647l0.226,0.226
		h-0.226l-0.197,0.423l-0.227-0.226v0.226h-0.227h-0.197l-0.225,0.423l-0.196-0.198v-0.226h-0.452l0.228-0.226v-0.198h0.226
		l-0.226-0.226h0.226l-0.226-0.198l0.226-0.226h0.197l0.227,0.226v0.423l0.197,0.198h0.225v-0.198h0.227l0.198-0.423v-0.452h-0.425
		l-0.225-0.198l-0.197,0.198h-0.452l0.226-0.198v-0.226l0.423-0.226v-0.194h-0.423v-0.226l0.227-0.423l0.197-0.226h0.225v0.226
		l0.227,0.226l-0.227,0.198h0.227l0.198,0.226V19.17l0.226,0.226h0.197l0.226-0.226h-0.226v-0.198h0.226v-0.226l0.227,0.226h0.195
		v0.198l0.649,0.648v-0.424h-0.197V18.52h-0.226v-0.847l0.226,0.198v-0.198l-0.226-0.225v-0.213l-0.228-0.198l0.228-0.226h-0.648
		v-0.195h0.227v-0.451l-0.227,0.226v-0.649l-0.226-0.226h-0.085v-0.141h0.028v-0.423l-0.226-0.225h-0.226v0.225h-0.197l0.197-0.225
		v-0.198H151.975L151.975,14.529z M153.101,19.408l-0.198,0.198v0.226h0.198V19.408z M164.102,34.497l0.225-0.226l-0.225-0.226
		V34.497z M161.9,109.487h-0.225v0.226L161.9,109.487z M151.806,148.633l-0.085,0.169h0.026L151.806,148.633z M56.621,287.361
		l0.198-0.197v-0.226l-0.198,0.226V287.361z M56.818,286.939v-0.423l-0.198-0.426h-0.226L56.818,286.939z M56.395,286.094
		l-0.198-0.45h-0.028L56.395,286.094z M55.548,284.993v0.227h0.198L55.548,284.993z M51.008,282.003l-0.198-0.225h-0.225
		L51.008,282.003z M39.388,206.136l0.226-0.225l-0.226-0.424V206.136z M49.514,192.545l0.198,0.227v-0.227H49.514z M58.566,176.61
		l0.198-0.227v-0.197L58.566,176.61z M54.25,155.458l0.198-0.226l-0.198-0.197V155.458z M50.218,138.396l-0.057-0.227v0.227H50.218z
		 M53.49,116.652l0.112-0.113l0.113-0.311L53.49,116.652z M53.716,116.229l0.113,0.112l0.113-0.112H53.716z M75.517,97.445
		l0.198-0.198h-0.198V97.445z M76.785,95.95h-0.197v0.226L76.785,95.95z M97.542,93.638l0.422,0.226l0.423,0.197h0.227l-1.072-0.847
		h-0.226l0.226,0.198V93.638L97.542,93.638z M98.191,85.43l0.422-0.198h-0.225L98.191,85.43z M128.341,46.511l-0.228-0.198v0.198
		H128.341z M134.149,48.034l0.226-0.198V47.61h-0.226V48.034z M142.556,24.57v0.226h0.225L142.556,24.57z M150.733,16.39h-0.197
		v0.226L150.733,16.39z M151.382,15.966V15.74l-0.197-0.225l-0.227,0.226l0.227,0.226v-0.226L151.382,15.966z M125.745,56.974
		l-0.197,0.226h0.197V56.974z M127.691,60.894l0.197,0.17v0.423l-0.028-0.028v-0.31l-0.169,0.141V60.894L127.691,60.894z
		 M112.632,76.349v0.226h-0.228L112.632,76.349z M102.054,83.062l0.226,0.226v0.226l-0.226,0.198l0.226,0.226h0.198l-0.198,0.198
		v-0.198h-0.226l-0.225-0.226v-0.198h0.225v-0.226h-0.225l-0.395,0.198l0.198-0.198h0.197L102.054,83.062z M85.669,97.473h0.451
		l0.423,0.423v0.226H86.12v0.226h0.197v0.198l0.226,0.451l-0.226,0.198v-0.198H86.12v-0.226l-0.226-0.226v0.226l-0.648,0.226v-0.451
		H85.02l-0.198,0.226L84.4,98.546v-0.198h-0.452l0.226-0.226h0.649l0.198-0.226h0.452l0.197-0.197L85.669,97.473L85.669,97.473z
		 M58.03,106.949h0.198l0.226,0.423h-0.226v-0.198L58.03,106.949z M138.944,121.981h0.226v0.197l0.423,0.226v0.649l0.227,0.424
		v0.226l-0.227,0.424l-0.228,0.227v0.423l-0.198,0.424h-0.226l-0.649,0.226v0.226l0.228,0.198v0.423h-0.423l-0.227,0.225v1.071
		l-0.424,0.875l-0.225,0.226v-0.226l-0.228-0.423v-0.874l-0.197-1.073l0.847-0.648l0.227-0.423l0.422-0.226v-0.424h0.228v-0.227
		l-0.423-0.424v-0.423l0.196-0.227h0.228l0.197,0.227h0.226v-0.227l-0.226-0.648L138.944,121.981z M104.086,157.037h0.227
		l0.648,0.648h0.197l0.229-0.198h0.227l-0.452,0.425v0.227h-0.197l-0.225,0.196l-0.424,0.229h-0.227l-0.226-0.229l0.451-0.422
		v-0.452l-0.227-0.197V157.037L104.086,157.037z M146.954,162.282v0.197h-0.226L146.954,162.282z M58.764,167.754h0.226
		l-0.226,0.451V167.754z M57.101,179.543h0.226l-0.226,0.197V179.543z M48.865,192.996v0.423h-0.226v-0.226L48.865,192.996z
		 M41.984,205.715l0.197,0.424v0.196l0.226,0.229h-0.226v-0.229l-0.197-0.423V205.715z M78.083,206.871l0.226,0.198v0.874h-0.423
		l-0.226-0.452l0.226-0.423L78.083,206.871z M43.45,215.727v0.226l0.198,0.227h0.226l0.847,0.425l0.226,0.226l-0.226,0.648
		l-0.198,0.196l-0.451,0.228l-0.846,0.197H43l-0.198-0.197L43,217.675l-0.198-0.196H42.35l-0.198-0.648v-0.226h0.198v0.424
		l0.226,0.225h0.423v-0.225v-0.424v-0.229l0.226-0.423L43.45,215.727z M45.395,222.241h0.198v0.198l0.226-0.198l0.226,0.198v0.45
		l-0.226,0.195h-0.226l-0.649-0.423h0.226h0.226L45.395,222.241L45.395,222.241z M44.748,260.795h0.226v0.451l0.424,0.424l0.198,1.3
		l0.226,0.874v0.848l-0.226-0.424l-0.198-0.228v-0.423v-0.226l-0.225-0.228v-0.425l-0.198-0.225v-0.427l-0.452-0.422v-0.227
		l0.226-0.198L44.748,260.795L44.748,260.795z M96.724,284.853l0.424,0.195v0.228L96.724,284.853z M57.466,285.642h0.226v0.226
		L57.466,285.642z"/>
</g>
<image display="none" overflow="visible" opacity="0.5" width="449" height="818" xlink:href="23AAA27C.jpg"  transform="matrix(0.7064 0 0 0.7064 55.1304 15.9727)">
</image>
<g id="Sud">
	<g id="nosybe_1_" display="none">
		
			<text transform="matrix(1 0 0 1 217.6904 75.5596)" display="inline" fill="#D7D7D7" font-family="'MyriadPro-Regular'" font-size="12">Nosy be</text>
		<path display="inline" fill="#D7D7D7" d="M262.048,50.842c-3.351,0-6.063,2.663-6.063,5.945c0,3.285,6.063,14.055,6.063,14.055
			s6.063-10.771,6.063-14.055C268.109,53.506,265.394,50.842,262.048,50.842z"/>
	</g>
	<g id="tulear_1_">
		<text transform="matrix(1 0 0 1 71.9063 503.1577)" fill="#343434" font-family="'MyriadPro-Regular'" font-size="12">Tulear</text>
		<path fill="#989898" d="M89.191,476.414c-3.348,0-6.062,2.664-6.062,5.947s6.062,14.053,6.062,14.053s6.062-10.77,6.062-14.053
			C95.253,479.08,92.539,476.414,89.191,476.414z"/>
	</g>
	<g id="antsirabe_1_">
		<text transform="matrix(1 0 0 1 218.5547 347.1577)" fill="#343434" font-family="'MyriadPro-Regular'" font-size="12">Antsirabe</text>
		<path fill="#989898" d="M215.622,328.89c-3.349,0-6.063,2.664-6.063,5.945c0,3.285,6.063,14.055,6.063,14.055
			s6.063-10.771,6.063-14.055S218.97,328.89,215.622,328.89z"/>
	</g>
	<g id="antananarivo_1_">
		<text transform="matrix(1 0 0 1 197.1904 312.8096)" fill="#343434" font-family="'MyriadPro-Regular'" font-size="12">Antananarivo</text>
		<path fill="#989898" d="M231.789,285.673c-3.351,0-6.062,2.664-6.062,5.945c0,3.286,6.062,14.055,6.062,14.055
			s6.063-10.771,6.063-14.055C237.853,288.337,235.138,285.673,231.789,285.673z"/>
	</g>
	<g id="Ambositra">
		
			<text id="Ambositra_1_" transform="matrix(1 0 0 1 227.7227 372.8901)" fill="#343434" font-family="'MyriadPro-Regular'" font-size="12">Ambositra</text>
		<path fill="#989898" d="M223.872,355.89c-3.349,0-6.063,2.664-6.063,5.945c0,3.285,6.063,14.055,6.063,14.055
			s6.063-10.771,6.063-14.055S227.22,355.89,223.872,355.89z"/>
	</g>
	<g id="ranomafana_1_">
		<text transform="matrix(1 0 0 1 234.5547 403.1226)" fill="#343434" font-family="'MyriadPro-Regular'" font-size="12">Ranomafana</text>
		<path fill="#989898" d="M230.622,383.39c-3.349,0-6.063,2.664-6.063,5.945c0,3.285,6.063,14.055,6.063,14.055
			s6.063-10.771,6.063-14.055S233.97,383.39,230.622,383.39z"/>
	</g>
	<g id="Fianarantsoa">
		<text transform="matrix(1 0 0 1 148.9893 417.6577)" fill="#343434" font-family="'MyriadPro-Regular'" font-size="12">Fianarantsoa</text>
		<path fill="#989898" d="M215.058,393.39c-3.35,0-6.063,2.664-6.063,5.945c0,3.285,6.063,14.055,6.063,14.055
			s6.063-10.771,6.063-14.055S218.405,393.39,215.058,393.39z"/>
	</g>
	<g id="ranohira_1_">
		<text transform="matrix(1 0 0 1 151.2354 471.6626)" fill="#343434" font-family="'MyriadPro-Regular'" font-size="12">Ranohira</text>
		<path fill="#989898" d="M151.032,440.89c-3.349,0-6.063,2.664-6.063,5.945c0,3.285,6.063,14.055,6.063,14.055
			s6.063-10.771,6.063-14.055S154.379,440.89,151.032,440.89z"/>
	</g>
	<g id="ifaty_1_">
		<text transform="matrix(1 0 0 1 66.4063 452.4077)" fill="#343434" font-family="'MyriadPro-Regular'" font-size="12">Ifaty</text>
		<path fill="#989898" d="M82.441,459.664c-3.348,0-6.062,2.664-6.062,5.947s6.062,14.053,6.062,14.053s6.062-10.77,6.062-14.053
			C88.503,462.33,85.789,459.664,82.441,459.664z"/>
	</g>
	<g id="andasibe_1_">
		<text transform="matrix(1 0 0 1 271.9795 316.5596)" fill="#343434" font-family="'MyriadPro-Regular'" font-size="12">Andasibe</text>
		<path fill="#989898" d="M273.289,290.272c-3.35,0-6.062,2.665-6.062,5.946c0,3.285,6.062,14.054,6.062,14.054
			s6.063-10.771,6.063-14.054C279.353,292.936,276.638,290.272,273.289,290.272z"/>
	</g>
	<g id="manambato_1_" display="none">
		
			<text transform="matrix(0.9463 0 0 1 302.1914 303.4492)" display="inline" fill="#D7D7D7" font-family="'MyriadPro-Regular'" font-size="12.6805">Ankanin’ny Nofy</text>
		<path display="inline" fill="#D7D7D7" d="M302.289,280.72c-3.35,0-6.062,2.666-6.062,5.947c0,3.287,6.062,14.053,6.062,14.053
			s6.063-10.771,6.063-14.053C308.353,283.384,305.637,280.72,302.289,280.72z"/>
	</g>
	<g id="miandrivazo_1_" display="none">
		
			<text transform="matrix(1 0 0 1 128.9063 343.5874)" display="inline" fill="#D7D7D7" font-family="'MyriadPro-Regular'" font-size="12">Miandrivazo</text>
		<path display="inline" fill="#D7D7D7" d="M155.872,316.158c-3.349,0-6.062,2.664-6.062,5.945c0,3.285,6.062,14.055,6.062,14.055
			s6.063-10.771,6.063-14.055C161.935,318.822,159.22,316.158,155.872,316.158z"/>
	</g>
	<g id="morondava_1_" display="none">
		
			<text transform="matrix(1 0 0 1 110.6563 375.8901)" display="inline" fill="#D7D7D7" font-family="'MyriadPro-Regular'" font-size="12">Morondava</text>
		<path display="inline" fill="#D7D7D7" d="M109.372,350.158c-3.349,0-6.062,2.665-6.062,5.946c0,3.284,6.062,14.054,6.062,14.054
			s6.063-10.771,6.063-14.054C115.435,352.821,112.72,350.158,109.372,350.158z"/>
	</g>
	<g id="belosurmer_1_" display="none">
		
			<text transform="matrix(1 0 0 1 66.9063 397.1577)" display="inline" fill="#D7D7D7" font-family="'MyriadPro-Regular'" font-size="12">Belo-Sur-Mer</text>
		<path display="inline" fill="#D7D7D7" d="M96.872,371.408c-3.349,0-6.062,2.665-6.062,5.946c0,3.284,6.062,14.054,6.062,14.054
			s6.063-10.771,6.063-14.054C102.935,374.071,100.22,371.408,96.872,371.408z"/>
	</g>
	<g id="bekopaka_1_" display="none">
		
			<text transform="matrix(1 0 0 1 101.6563 286.9414)" display="inline" fill="#D7D7D7" font-family="'MyriadPro-Regular'" font-size="12">Bekopaka</text>
		<path display="inline" fill="#D7D7D7" d="M127.235,289.39c-3.349,0-6.062,2.664-6.062,5.945c0,3.285,6.062,14.055,6.062,14.055
			s6.063-10.77,6.063-14.055C133.298,292.054,130.583,289.39,127.235,289.39z"/>
	</g>
	<g id="tsiribihina_1_" display="none">
		
			<text transform="matrix(1 0 0 1 54.6563 328.5601)" display="inline" fill="#D7D7D7" font-family="'MyriadPro-Regular'" font-size="12">Belo-Sur </text>
		
			<text transform="matrix(1 0 0 1 54.6563 338.9604)" display="inline" fill="#D7D7D7" font-family="'MyriadPro-Regular'" font-size="12">Tsiribihina</text>
		<path display="inline" fill="#D7D7D7" d="M119.304,324.855c-3.349,0-6.062,2.665-6.062,5.945c0,3.285,6.062,14.055,6.062,14.055
			s6.063-10.771,6.063-14.055C125.367,327.518,122.651,324.855,119.304,324.855z"/>
	</g>
	<g id="diego_1_" display="none">
		
			<text transform="matrix(1 0 0 1 306.4834 50.3096)" display="inline" fill="#D7D7D7" font-family="'MyriadPro-Regular'" font-size="12">Diego Suarez</text>
		<path display="inline" fill="#D7D7D7" d="M306.294,23.57c-3.349,0-6.063,2.665-6.063,5.946c0,3.285,6.063,14.054,6.063,14.054
			s6.063-10.77,6.063-14.054C312.357,26.234,309.643,23.57,306.294,23.57z"/>
	</g>
</g>
<g id="Antananarivo_-_Andasibe">
	<path id="Tana-Andasibe" fill="none" stroke="#562B05" stroke-width="3" stroke-miterlimit="10" stroke-opacity="0.4" d="
		M271.979,312.81c0,0-14.072-14.005-40.19-6.136"/>
	<g id="Car_Antananarivo_-_Andasibe" transform="translate(1.4065934065934016 1.4065934065934016) scale(2.81 2.81)">
		<circle cx="91.112" cy="105.748" r="0.151"/>
		<circle cx="87.167" cy="105.748" r="0.151"/>
		<path fill="#562B05" d="M91.479,104.144l-0.618-0.094l-0.182-0.199c-0.433-0.475-1.05-0.747-1.693-0.747h-0.483
			c-0.105,0-0.209,0.008-0.311,0.023c-0.002,0-0.003,0.001-0.005,0.001c-0.603,0.088-1.145,0.423-1.492,0.937
			c-0.615,0.224-1.057,0.801-1.057,1.388c0,0.252,0.205,0.456,0.457,0.456h0.267c0.075,0.377,0.408,0.661,0.806,0.661
			c0.398,0,0.731-0.285,0.806-0.661h2.332c0.075,0.377,0.408,0.661,0.806,0.661s0.731-0.285,0.806-0.661h0.228
			c0.252,0,0.457-0.205,0.457-0.456C92.603,104.794,92.13,104.243,91.479,104.144z M88.986,103.413c0.547,0,1.072,0.228,1.445,0.626
			h-1.74l-0.253-0.624c0.021-0.001,0.043-0.002,0.064-0.002H88.986z M88.121,103.453l0.237,0.586h-1.252
			C87.373,103.739,87.729,103.534,88.121,103.453z M87.168,106.26c-0.283,0-0.513-0.23-0.513-0.512c0-0.283,0.23-0.513,0.513-0.513
			c0.283,0,0.513,0.23,0.513,0.513C87.68,106.031,87.45,106.26,87.168,106.26z M91.112,106.26c-0.283,0-0.513-0.23-0.513-0.512
			c0-0.283,0.23-0.513,0.513-0.513c0.283,0,0.512,0.23,0.512,0.513C91.624,106.031,91.395,106.26,91.112,106.26z"/>
	</g>
</g>
<g id="Antananarivo_-_Antsirabe">
	<path id="Tana_-_Antsirabe_1_" fill="none" stroke="#562B05" stroke-width="3" stroke-miterlimit="10" stroke-opacity="0.4" d="
		M232.789,305.673c0,0,7.118,23.217-16.073,43.217"/>
	<g id="Car__Antananarivo_Antsirabe" transform="translate(1.4065934065934016 1.4065934065934016) scale(2.81 2.81)">
		<circle cx="88.621" cy="116.424" r="0.151"/>
		<circle cx="84.676" cy="116.424" r="0.151"/>
		<path fill="#562B05" d="M88.988,114.82l-0.618-0.094l-0.182-0.199c-0.433-0.475-1.05-0.747-1.693-0.747h-0.483
			c-0.105,0-0.209,0.008-0.311,0.023c-0.002,0-0.003,0-0.005,0.001c-0.603,0.088-1.145,0.423-1.492,0.937
			c-0.615,0.224-1.057,0.8-1.057,1.388c0,0.252,0.205,0.456,0.457,0.456h0.267c0.075,0.376,0.408,0.661,0.806,0.661
			c0.398,0,0.731-0.285,0.806-0.661h2.332c0.075,0.376,0.408,0.661,0.806,0.661s0.731-0.285,0.806-0.661h0.228
			c0.252,0,0.457-0.205,0.457-0.456C90.112,115.47,89.639,114.919,88.988,114.82z M86.495,114.089c0.547,0,1.072,0.228,1.445,0.626
			h-1.74l-0.253-0.624c0.021-0.001,0.043-0.002,0.064-0.002H86.495z M85.629,114.129l0.237,0.587h-1.252
			C84.882,114.415,85.237,114.211,85.629,114.129z M84.677,116.937c-0.283,0-0.513-0.23-0.513-0.512c0-0.283,0.23-0.513,0.513-0.513
			c0.283,0,0.513,0.23,0.513,0.513C85.189,116.707,84.959,116.937,84.677,116.937z M88.621,116.937c-0.283,0-0.513-0.23-0.513-0.512
			c0-0.283,0.23-0.513,0.513-0.513c0.283,0,0.512,0.23,0.512,0.513C89.133,116.707,88.904,116.937,88.621,116.937z"/>
	</g>
</g>
<g id="Antsirabe_-_Ranomafana_1_">
	<path id="Antsirabe_-_Ranomafana" fill="none" stroke="#562B05" stroke-width="3" stroke-miterlimit="10" stroke-opacity="0.4" d="
		M216.716,348.89c0,0-0.185,61.772,15.073,53.354"/>
	<g id="Car_Antsirabe_-__Ranomafana" transform="translate(1.4065934065934016 1.4065934065934016) scale(2.81 2.81)">
		<circle cx="74.03" cy="133.112" r="0.151"/>
		<circle cx="70.085" cy="133.112" r="0.151"/>
		<path fill="#562B05" d="M74.397,131.508l-0.618-0.094l-0.182-0.199c-0.433-0.475-1.05-0.747-1.693-0.747h-0.483
			c-0.105,0-0.209,0.008-0.311,0.023c-0.002,0-0.003,0-0.005,0.001c-0.603,0.088-1.145,0.423-1.492,0.937
			c-0.615,0.224-1.057,0.8-1.057,1.388c0,0.252,0.205,0.456,0.457,0.456h0.267c0.075,0.376,0.408,0.661,0.806,0.661
			s0.731-0.285,0.806-0.661h2.332c0.075,0.376,0.408,0.661,0.806,0.661s0.731-0.285,0.806-0.661h0.228
			c0.252,0,0.457-0.205,0.457-0.456C75.521,132.157,75.049,131.607,74.397,131.508z M71.904,130.777
			c0.547,0,1.072,0.228,1.445,0.626h-1.74l-0.253-0.624c0.021-0.001,0.043-0.002,0.064-0.002H71.904z M71.039,130.817l0.237,0.587
			h-1.252C70.292,131.103,70.647,130.898,71.039,130.817z M70.086,133.624c-0.283,0-0.513-0.23-0.513-0.512s0.23-0.513,0.513-0.513
			c0.283,0,0.513,0.23,0.513,0.513S70.368,133.624,70.086,133.624z M74.03,133.624c-0.283,0-0.513-0.23-0.513-0.512
			s0.23-0.513,0.513-0.513c0.283,0,0.512,0.23,0.512,0.513S74.313,133.624,74.03,133.624z"/>
	</g>
</g>
<g id="_Fianarantsoa_-_Ranohira">
	
		<path id="Fianarantsoa_-_Ranohira" fill="none" stroke="#562B05" stroke-width="3" stroke-miterlimit="10" stroke-opacity="0.4" d="
		M215.058,414.39c0,0-34.532,46.719-63.15,45.647"/>
	<g id="Car_Fianarantsoa_Ranohira" transform="translate(1.4065934065934016 1.4065934065934016) scale(2.81 2.81)">
		<circle cx="72.94" cy="159.987" r="0.151"/>
		<circle cx="68.995" cy="159.987" r="0.151"/>
		<path fill="#562B05" d="M73.307,158.382l-0.618-0.094l-0.182-0.199c-0.433-0.475-1.05-0.747-1.693-0.747h-0.483
			c-0.105,0-0.209,0.008-0.311,0.023c-0.002,0-0.003,0-0.005,0.001c-0.603,0.088-1.145,0.423-1.492,0.937
			c-0.615,0.224-1.057,0.8-1.057,1.388c0,0.252,0.205,0.456,0.457,0.456h0.267c0.075,0.376,0.408,0.661,0.806,0.661
			c0.398,0,0.731-0.285,0.806-0.661h2.332c0.075,0.376,0.408,0.661,0.806,0.661c0.398,0,0.731-0.285,0.806-0.661h0.228
			c0.252,0,0.457-0.205,0.457-0.456C74.431,159.032,73.958,158.482,73.307,158.382z M70.814,157.652
			c0.547,0,1.072,0.228,1.445,0.626h-1.74l-0.253-0.624c0.021-0.001,0.043-0.002,0.064-0.002H70.814z M69.949,157.691l0.237,0.587
			h-1.252C69.201,157.978,69.557,157.773,69.949,157.691z M68.996,160.499c-0.283,0-0.513-0.23-0.513-0.512
			c0-0.283,0.23-0.513,0.513-0.513c0.283,0,0.513,0.23,0.513,0.513C69.508,160.269,69.278,160.499,68.996,160.499z M72.94,160.499
			c-0.283,0-0.512-0.23-0.512-0.512c0-0.283,0.23-0.513,0.512-0.513s0.512,0.23,0.512,0.513
			C73.452,160.269,73.223,160.499,72.94,160.499z"/>
	</g>
</g>
<g id="Ranohira_-_Tulear">
	
		<path id="Ranohira_-_Tulear_-_Ifaty_1_" fill="none" stroke="#562B05" stroke-width="3" stroke-miterlimit="10" stroke-opacity="0.4" d="
		M151.032,460.89c-56.875,18.086-62.529,34.271-62.529,34.271s-5.028-1.638-6.062-15.497"/>
	<g id="Car_Ranohira_-_Tulear" transform="translate(1.4065934065934016 1.4065934065934016) scale(2.81 2.81)">
		<circle cx="45.815" cy="171.11" r="0.151"/>
		<circle cx="41.87" cy="171.11" r="0.151"/>
		<path fill="#562B05" d="M46.182,169.505l-0.618-0.094l-0.182-0.199c-0.433-0.475-1.05-0.747-1.693-0.747h-0.483
			c-0.105,0-0.209,0.008-0.311,0.023c-0.002,0-0.003,0-0.005,0.001c-0.603,0.088-1.145,0.423-1.492,0.937
			c-0.615,0.224-1.057,0.8-1.057,1.388c0,0.252,0.205,0.456,0.457,0.456h0.267c0.075,0.376,0.408,0.661,0.806,0.661
			c0.398,0,0.731-0.285,0.806-0.661h2.332c0.075,0.376,0.408,0.661,0.806,0.661c0.398,0,0.731-0.285,0.806-0.661h0.228
			c0.252,0,0.457-0.205,0.457-0.456C47.305,170.155,46.833,169.605,46.182,169.505z M43.689,168.775
			c0.547,0,1.072,0.228,1.445,0.626h-1.74l-0.253-0.624c0.021-0.001,0.043-0.002,0.064-0.002H43.689z M42.823,168.814l0.237,0.587
			h-1.252C42.076,169.101,42.431,168.896,42.823,168.814z M41.87,171.622c-0.283,0-0.513-0.23-0.513-0.512s0.23-0.513,0.513-0.513
			c0.283,0,0.513,0.23,0.513,0.513S42.153,171.622,41.87,171.622z M45.815,171.622c-0.283,0-0.513-0.23-0.513-0.512
			s0.23-0.513,0.513-0.513c0.283,0,0.512,0.23,0.512,0.513S46.097,171.622,45.815,171.622z"/>
	</g>
</g>
<g id="Tulear_Tana">
	<path id="Tulear-_Antananarivo" fill="none" stroke="#FDFAF7" stroke-width="3" stroke-miterlimit="10" stroke-opacity="0.3" d="
		M231.723,307.1c0,0-119.815,24.704-143.219,188.061"/>
	<g id="Plane_Tulear_-Tana" transform="translate(1.4065934065934016 1.4065934065934016) scale(2.81 2.81)">
		<path fill="#562B05" stroke="#FDFAF7" stroke-miterlimit="10" d="M48.022,129.799c-0.007,0-0.015-0.001-0.022-0.002
			c-0.039-0.007-0.071-0.033-0.087-0.069l-1.949-4.457l-1.399,1.399l0.39,1.281c0.013,0.042,0.001,0.087-0.03,0.118l-0.763,0.762
			c-0.027,0.027-0.066,0.039-0.104,0.033c-0.038-0.007-0.07-0.032-0.087-0.066l-0.891-1.9l-1.93-0.905
			c-0.035-0.017-0.06-0.049-0.066-0.087c-0.007-0.038,0.006-0.077,0.033-0.104l0.763-0.763c0.031-0.031,0.076-0.042,0.119-0.03
			l1.28,0.39l1.407-1.407l-4.457-1.949c-0.036-0.016-0.062-0.048-0.069-0.087c-0.007-0.039,0.005-0.078,0.033-0.106l0.893-0.893
			c0.028-0.028,0.069-0.04,0.108-0.032l5.415,1.144l2.671-2.672c0.171-0.171,0.398-0.264,0.639-0.264
			c0.242,0,0.468,0.094,0.639,0.264c0.171,0.171,0.265,0.398,0.265,0.639c0,0.242-0.094,0.468-0.265,0.639l-2.671,2.671l1.144,5.414
			c0.008,0.039-0.004,0.08-0.032,0.108l-0.893,0.893C48.084,129.787,48.053,129.799,48.022,129.799z M49.364,119.482h0.001H49.364z"
			/>
	</g>
</g>
<g id="Parc_Andasibe">
	<g id="Parc_Andasibe_1_" transform="translate(1.4065934065934016 1.4065934065934016) scale(2.81 2.81)">
		<path stroke="#008000" stroke-miterlimit="10" d="M96.43,116.179c-0.896,0-1.625-0.729-1.625-1.625
			c0-0.773,0.638-3.006,1.625-3.006c0.986,0,1.624,2.233,1.624,3.006C98.054,115.45,97.326,116.179,96.43,116.179z M96.43,111.851
			c-0.659,0-1.322,1.853-1.322,2.703c0,0.728,0.593,1.322,1.322,1.322c0.728,0,1.321-0.593,1.321-1.322
			C97.751,113.704,97.087,111.851,96.43,111.851z"/>
		<path stroke="#008000" stroke-miterlimit="10" d="M96.432,117.283c-0.083,0-0.151-0.068-0.151-0.152v-3.271
			c0-0.084,0.068-0.152,0.151-0.152c0.084,0,0.152,0.068,0.152,0.152v3.271C96.584,117.214,96.516,117.283,96.432,117.283z"/>
		<path stroke="#008000" stroke-miterlimit="10" d="M96.432,114.663c-0.041,0-0.081-0.016-0.111-0.049
			c-0.057-0.062-0.053-0.157,0.008-0.214l0.443-0.41c0.061-0.057,0.157-0.053,0.214,0.008c0.057,0.061,0.053,0.157-0.008,0.214
			l-0.443,0.41C96.506,114.65,96.469,114.663,96.432,114.663z"/>
		<path stroke="#008000" stroke-miterlimit="10" d="M96.432,115.294c-0.037,0-0.074-0.014-0.103-0.041l-0.619-0.572
			c-0.061-0.057-0.065-0.153-0.008-0.214c0.056-0.062,0.153-0.065,0.214-0.008l0.619,0.573c0.062,0.057,0.065,0.153,0.008,0.214
			C96.514,115.277,96.473,115.294,96.432,115.294z"/>
		<path stroke="#008000" stroke-miterlimit="10" d="M98.55,116.443c-0.527,0-1.006-0.332-1.191-0.825
			c-0.03-0.078,0.01-0.166,0.088-0.195c0.078-0.03,0.166,0.01,0.195,0.089c0.141,0.376,0.506,0.628,0.908,0.628
			c0.535,0,0.969-0.434,0.969-0.969c0-0.535-0.434-0.969-0.969-0.969c-0.21,0-0.409,0.066-0.577,0.19
			c-0.067,0.05-0.163,0.035-0.212-0.031c-0.05-0.068-0.036-0.163,0.031-0.213c0.22-0.164,0.483-0.25,0.758-0.25
			c0.702,0,1.272,0.571,1.272,1.272C99.822,115.872,99.252,116.443,98.55,116.443z"/>
		<path stroke="#008000" stroke-miterlimit="10" d="M98.552,117.283c-0.084,0-0.152-0.068-0.152-0.152v-2.208
			c0-0.084,0.068-0.152,0.152-0.152c0.084,0,0.152,0.068,0.152,0.152v2.208C98.704,117.214,98.636,117.283,98.552,117.283z"/>
		<path stroke="#008000" stroke-miterlimit="10" d="M98.552,115.57c-0.041,0-0.082-0.016-0.111-0.049
			c-0.057-0.062-0.053-0.157,0.008-0.214l0.337-0.312c0.062-0.057,0.157-0.053,0.214,0.009c0.057,0.061,0.053,0.157-0.009,0.214
			l-0.337,0.312C98.626,115.557,98.589,115.57,98.552,115.57z"/>
		<path stroke="#008000" stroke-miterlimit="10" d="M98.552,116.05c-0.037,0-0.074-0.014-0.103-0.041l-0.471-0.436
			c-0.062-0.057-0.065-0.153-0.008-0.214c0.057-0.062,0.153-0.065,0.214-0.008l0.471,0.436c0.062,0.057,0.065,0.153,0.008,0.214
			C98.633,116.033,98.593,116.05,98.552,116.05z"/>
		<path stroke="#008000" stroke-miterlimit="10" d="M94.432,117.283c-0.083,0-0.152-0.068-0.152-0.152v-2.145
			c0-0.083,0.068-0.152,0.152-0.152c0.084,0,0.152,0.068,0.152,0.152v2.145C94.584,117.214,94.516,117.283,94.432,117.283z"/>
		<path stroke="#008000" stroke-miterlimit="10" d="M94.432,115.635c-0.041,0-0.082-0.016-0.112-0.049
			c-0.056-0.062-0.053-0.157,0.009-0.214l0.338-0.313c0.061-0.057,0.157-0.053,0.214,0.008c0.057,0.062,0.053,0.157-0.009,0.214
			l-0.338,0.313C94.506,115.622,94.469,115.635,94.432,115.635z"/>
		<path stroke="#008000" stroke-miterlimit="10" d="M94.432,116.116c-0.037,0-0.074-0.014-0.103-0.041l-0.473-0.437
			c-0.061-0.057-0.065-0.153-0.008-0.214c0.057-0.062,0.153-0.065,0.214-0.008l0.473,0.437c0.062,0.057,0.065,0.153,0.008,0.214
			C94.513,116.1,94.473,116.116,94.432,116.116z"/>
		<path stroke="#008000" stroke-miterlimit="10" d="M95.298,116.598h-1.737c-0.312,0-0.565-0.254-0.565-0.565
			c0-0.179,0.085-0.345,0.224-0.45c-0.007-0.044-0.01-0.089-0.01-0.133c0-0.275,0.133-0.535,0.351-0.697c0-0.002,0-0.003,0-0.005
			c0-0.48,0.39-0.869,0.869-0.869c0.241,0,0.474,0.101,0.637,0.278c0.057,0.062,0.054,0.157-0.008,0.214
			c-0.062,0.057-0.157,0.054-0.215-0.008c-0.108-0.117-0.255-0.181-0.415-0.181c-0.312,0-0.566,0.254-0.566,0.566
			c0,0.022,0.002,0.044,0.004,0.065c0.007,0.06-0.022,0.119-0.074,0.148c-0.173,0.102-0.281,0.289-0.281,0.489
			c0,0.054,0.008,0.109,0.024,0.162c0.022,0.073-0.014,0.15-0.083,0.181c-0.094,0.043-0.155,0.136-0.155,0.239
			c0,0.144,0.117,0.262,0.262,0.262h1.737c0.144,0,0.262-0.118,0.262-0.262c0-0.051-0.015-0.101-0.043-0.144
			c-0.046-0.07-0.027-0.164,0.043-0.21c0.07-0.046,0.164-0.026,0.21,0.043c0.061,0.092,0.093,0.199,0.093,0.311
			C95.864,116.344,95.61,116.598,95.298,116.598z"/>
		<path stroke="#008000" stroke-miterlimit="10" d="M99.671,117.283h-6.523c-0.084,0-0.152-0.068-0.152-0.152
			c0-0.084,0.068-0.152,0.152-0.152h6.523c0.084,0,0.152,0.068,0.152,0.152C99.822,117.214,99.755,117.283,99.671,117.283z"/>
	</g>
</g>
<g id="Parc_Ranomafana">
	<g id="parc_Ranomafana" transform="translate(1.4065934065934016 1.4065934065934016) scale(2.81 2.81)">
		<path stroke="#008000" stroke-miterlimit="10" d="M88.073,138.769c-0.896,0-1.625-0.729-1.625-1.625
			c0-0.773,0.638-3.006,1.625-3.006c0.986,0,1.624,2.233,1.624,3.006C89.697,138.039,88.969,138.769,88.073,138.769z
			 M88.073,134.441c-0.659,0-1.322,1.853-1.322,2.703c0,0.728,0.593,1.322,1.322,1.322c0.728,0,1.321-0.593,1.321-1.322
			C89.394,136.294,88.73,134.441,88.073,134.441z"/>
		<path stroke="#008000" stroke-miterlimit="10" d="M88.075,139.872c-0.083,0-0.151-0.068-0.151-0.152v-3.271
			c0-0.084,0.068-0.152,0.151-0.152c0.084,0,0.152,0.068,0.152,0.152v3.271C88.228,139.804,88.159,139.872,88.075,139.872z"/>
		<path stroke="#008000" stroke-miterlimit="10" d="M88.075,137.253c-0.041,0-0.081-0.016-0.111-0.049
			c-0.057-0.062-0.053-0.157,0.008-0.214l0.443-0.41c0.061-0.057,0.157-0.053,0.214,0.008c0.057,0.061,0.053,0.157-0.008,0.214
			l-0.443,0.41C88.149,137.24,88.113,137.253,88.075,137.253z"/>
		<path stroke="#008000" stroke-miterlimit="10" d="M88.075,137.883c-0.037,0-0.074-0.014-0.103-0.041l-0.619-0.572
			c-0.061-0.057-0.065-0.153-0.008-0.214c0.056-0.062,0.153-0.065,0.214-0.008l0.619,0.573c0.062,0.057,0.065,0.153,0.008,0.214
			C88.157,137.866,88.116,137.883,88.075,137.883z"/>
		<path stroke="#008000" stroke-miterlimit="10" d="M90.193,139.033c-0.527,0-1.006-0.332-1.191-0.825
			c-0.03-0.078,0.01-0.166,0.088-0.195c0.078-0.03,0.166,0.01,0.195,0.089c0.141,0.376,0.506,0.628,0.908,0.628
			c0.535,0,0.969-0.434,0.969-0.969c0-0.535-0.434-0.969-0.969-0.969c-0.21,0-0.409,0.066-0.577,0.19
			c-0.067,0.05-0.163,0.035-0.212-0.031c-0.05-0.068-0.036-0.163,0.031-0.213c0.22-0.164,0.483-0.25,0.758-0.25
			c0.702,0,1.272,0.571,1.272,1.272C91.466,138.462,90.895,139.033,90.193,139.033z"/>
		<path stroke="#008000" stroke-miterlimit="10" d="M90.195,139.872c-0.084,0-0.152-0.068-0.152-0.152v-2.208
			c0-0.084,0.068-0.152,0.152-0.152c0.084,0,0.152,0.068,0.152,0.152v2.208C90.347,139.804,90.279,139.872,90.195,139.872z"/>
		<path stroke="#008000" stroke-miterlimit="10" d="M90.195,138.159c-0.041,0-0.082-0.016-0.111-0.049
			c-0.057-0.062-0.053-0.157,0.008-0.214l0.337-0.312c0.062-0.057,0.157-0.053,0.214,0.009c0.057,0.061,0.053,0.157-0.009,0.214
			l-0.337,0.312C90.269,138.146,90.232,138.159,90.195,138.159z"/>
		<path stroke="#008000" stroke-miterlimit="10" d="M90.195,138.639c-0.037,0-0.074-0.014-0.103-0.041l-0.471-0.436
			c-0.062-0.057-0.065-0.153-0.008-0.214c0.057-0.062,0.153-0.065,0.214-0.008l0.471,0.436c0.062,0.057,0.065,0.153,0.008,0.214
			C90.277,138.623,90.236,138.639,90.195,138.639z"/>
		<path stroke="#008000" stroke-miterlimit="10" d="M86.075,139.872c-0.083,0-0.152-0.068-0.152-0.152v-2.145
			c0-0.083,0.068-0.152,0.152-0.152c0.084,0,0.152,0.068,0.152,0.152v2.145C86.227,139.804,86.159,139.872,86.075,139.872z"/>
		<path stroke="#008000" stroke-miterlimit="10" d="M86.076,138.224c-0.041,0-0.082-0.016-0.112-0.049
			c-0.056-0.062-0.053-0.157,0.009-0.214l0.339-0.313c0.061-0.057,0.157-0.053,0.214,0.008c0.057,0.062,0.053,0.157-0.009,0.214
			l-0.338,0.313C86.149,138.211,86.113,138.224,86.076,138.224z"/>
		<path stroke="#008000" stroke-miterlimit="10" d="M86.075,138.705c-0.037,0-0.074-0.014-0.103-0.041l-0.473-0.436
			c-0.061-0.057-0.065-0.153-0.008-0.214c0.057-0.062,0.153-0.065,0.214-0.008l0.473,0.437c0.062,0.057,0.065,0.153,0.008,0.214
			C86.157,138.689,86.116,138.705,86.075,138.705z"/>
		<path stroke="#008000" stroke-miterlimit="10" d="M86.942,139.188h-1.737c-0.312,0-0.565-0.254-0.565-0.565
			c0-0.179,0.085-0.345,0.224-0.45c-0.007-0.044-0.01-0.089-0.01-0.133c0-0.275,0.133-0.535,0.351-0.697c0-0.002,0-0.003,0-0.005
			c0-0.48,0.39-0.869,0.869-0.869c0.241,0,0.474,0.101,0.637,0.278c0.057,0.062,0.054,0.157-0.008,0.214
			c-0.062,0.057-0.157,0.054-0.215-0.008c-0.108-0.117-0.255-0.181-0.415-0.181c-0.312,0-0.566,0.254-0.566,0.566
			c0,0.022,0.002,0.044,0.004,0.065c0.007,0.06-0.022,0.119-0.074,0.148c-0.173,0.102-0.281,0.289-0.281,0.489
			c0,0.054,0.008,0.109,0.024,0.162c0.022,0.073-0.014,0.15-0.083,0.181c-0.094,0.043-0.155,0.136-0.155,0.239
			c0,0.144,0.117,0.262,0.262,0.262h1.737c0.144,0,0.262-0.118,0.262-0.262c0-0.051-0.015-0.101-0.043-0.144
			c-0.046-0.07-0.027-0.164,0.043-0.21c0.07-0.046,0.164-0.026,0.21,0.043c0.061,0.092,0.093,0.199,0.093,0.311
			C87.508,138.934,87.253,139.188,86.942,139.188z"/>
		<path stroke="#008000" stroke-miterlimit="10" d="M91.314,139.872h-6.523c-0.084,0-0.152-0.068-0.152-0.152
			c0-0.084,0.068-0.152,0.152-0.152h6.523c0.084,0,0.152,0.068,0.152,0.152C91.466,139.804,91.398,139.872,91.314,139.872z"/>
	</g>
</g>
<g id="Parc_Isalo">
	<g id="Parc_Isalo_1_" transform="translate(1.4065934065934016 1.4065934065934016) scale(2.81 2.81)">
		<path stroke="#008000" stroke-miterlimit="10" d="M47.31,162.058c-0.896,0-1.625-0.729-1.625-1.625
			c0-0.773,0.638-3.006,1.625-3.006c0.986,0,1.624,2.233,1.624,3.006C48.935,161.329,48.206,162.058,47.31,162.058z M47.31,157.73
			c-0.659,0-1.322,1.853-1.322,2.703c0,0.728,0.593,1.322,1.322,1.322c0.728,0,1.321-0.593,1.321-1.322
			C48.631,159.583,47.968,157.73,47.31,157.73z"/>
		<path stroke="#008000" stroke-miterlimit="10" d="M47.313,163.161c-0.083,0-0.151-0.068-0.151-0.152v-3.271
			c0-0.084,0.068-0.152,0.151-0.152c0.084,0,0.152,0.068,0.152,0.152v3.271C47.465,163.093,47.397,163.161,47.313,163.161z"/>
		<path stroke="#008000" stroke-miterlimit="10" d="M47.313,160.542c-0.041,0-0.081-0.016-0.111-0.049
			c-0.057-0.062-0.053-0.157,0.008-0.214l0.443-0.41c0.061-0.057,0.157-0.053,0.214,0.008c0.057,0.061,0.053,0.157-0.008,0.214
			l-0.443,0.41C47.386,160.529,47.35,160.542,47.313,160.542z"/>
		<path stroke="#008000" stroke-miterlimit="10" d="M47.313,161.172c-0.037,0-0.074-0.014-0.103-0.041l-0.619-0.572
			c-0.061-0.057-0.065-0.153-0.008-0.214c0.056-0.062,0.153-0.065,0.214-0.008l0.619,0.573c0.062,0.057,0.065,0.153,0.008,0.214
			C47.394,161.155,47.354,161.172,47.313,161.172z"/>
		<path stroke="#008000" stroke-miterlimit="10" d="M49.431,162.322c-0.527,0-1.006-0.332-1.191-0.825
			c-0.03-0.078,0.01-0.166,0.088-0.195c0.078-0.03,0.166,0.01,0.195,0.089c0.141,0.376,0.506,0.628,0.908,0.628
			c0.535,0,0.969-0.434,0.969-0.969c0-0.535-0.434-0.969-0.969-0.969c-0.21,0-0.409,0.066-0.577,0.19
			c-0.067,0.05-0.163,0.035-0.212-0.031c-0.05-0.068-0.036-0.163,0.031-0.213c0.22-0.164,0.483-0.25,0.758-0.25
			c0.702,0,1.272,0.571,1.272,1.272C50.703,161.751,50.132,162.322,49.431,162.322z"/>
		<path stroke="#008000" stroke-miterlimit="10" d="M49.433,163.161c-0.084,0-0.152-0.068-0.152-0.152v-2.208
			c0-0.084,0.068-0.152,0.152-0.152c0.084,0,0.152,0.068,0.152,0.152v2.208C49.584,163.093,49.516,163.161,49.433,163.161z"/>
		<path stroke="#008000" stroke-miterlimit="10" d="M49.433,161.448c-0.041,0-0.082-0.016-0.111-0.049
			c-0.057-0.062-0.053-0.157,0.008-0.214l0.337-0.312c0.062-0.057,0.157-0.053,0.214,0.009c0.057,0.061,0.053,0.157-0.009,0.214
			l-0.337,0.312C49.506,161.436,49.469,161.448,49.433,161.448z"/>
		<path stroke="#008000" stroke-miterlimit="10" d="M49.433,161.928c-0.037,0-0.074-0.014-0.103-0.041l-0.471-0.436
			c-0.062-0.057-0.065-0.153-0.008-0.214c0.057-0.062,0.153-0.065,0.214-0.008l0.471,0.436c0.062,0.057,0.065,0.153,0.008,0.214
			C49.514,161.912,49.473,161.928,49.433,161.928z"/>
		<path stroke="#008000" stroke-miterlimit="10" d="M45.313,163.161c-0.083,0-0.152-0.068-0.152-0.152v-2.145
			c0-0.083,0.068-0.152,0.152-0.152c0.084,0,0.152,0.068,0.152,0.152v2.145C45.465,163.093,45.397,163.161,45.313,163.161z"/>
		<path stroke="#008000" stroke-miterlimit="10" d="M45.313,161.513c-0.041,0-0.082-0.016-0.112-0.049
			c-0.056-0.062-0.053-0.157,0.009-0.214l0.338-0.313c0.061-0.057,0.157-0.053,0.214,0.008c0.057,0.062,0.053,0.157-0.009,0.214
			l-0.338,0.313C45.387,161.5,45.35,161.513,45.313,161.513z"/>
		<path stroke="#008000" stroke-miterlimit="10" d="M45.313,161.994c-0.037,0-0.074-0.014-0.103-0.041l-0.473-0.437
			c-0.061-0.057-0.065-0.153-0.008-0.214c0.057-0.062,0.153-0.065,0.214-0.008l0.473,0.437c0.062,0.057,0.065,0.153,0.008,0.214
			C45.394,161.978,45.354,161.994,45.313,161.994z"/>
		<path stroke="#008000" stroke-miterlimit="10" d="M46.179,162.477h-1.737c-0.312,0-0.565-0.254-0.565-0.565
			c0-0.179,0.085-0.345,0.224-0.45c-0.007-0.044-0.01-0.089-0.01-0.133c0-0.275,0.133-0.535,0.351-0.697c0-0.002,0-0.003,0-0.005
			c0-0.48,0.39-0.869,0.869-0.869c0.241,0,0.474,0.101,0.637,0.278c0.057,0.062,0.054,0.157-0.008,0.214
			c-0.062,0.057-0.157,0.054-0.215-0.008c-0.108-0.117-0.255-0.181-0.415-0.181c-0.312,0-0.566,0.254-0.566,0.566
			c0,0.022,0.002,0.044,0.004,0.065c0.007,0.06-0.022,0.119-0.074,0.148c-0.173,0.102-0.281,0.289-0.281,0.489
			c0,0.054,0.008,0.109,0.024,0.162c0.022,0.073-0.014,0.15-0.083,0.181c-0.094,0.043-0.155,0.136-0.155,0.239
			c0,0.144,0.117,0.262,0.262,0.262h1.737c0.144,0,0.262-0.118,0.262-0.262c0-0.051-0.015-0.101-0.043-0.144
			c-0.046-0.07-0.027-0.164,0.043-0.21c0.07-0.046,0.164-0.026,0.21,0.043c0.061,0.092,0.093,0.199,0.093,0.311
			C46.745,162.223,46.491,162.477,46.179,162.477z"/>
		<path stroke="#008000" stroke-miterlimit="10" d="M50.551,163.161h-6.523c-0.084,0-0.152-0.068-0.152-0.152
			c0-0.084,0.068-0.152,0.152-0.152h6.523c0.084,0,0.152,0.068,0.152,0.152C50.703,163.093,50.635,163.161,50.551,163.161z"/>
	</g>
</g>
<g id="Beach_Ifaty">
	<g id="Beach_Ifaty_1_" transform="translate(1.4065934065934016 1.4065934065934016) scale(2.81 2.81)">
		<path stroke="#0077CC" stroke-miterlimit="10" d="M26.969,170.351c-0.285-0.166-0.572-0.246-0.859-0.242
			c-0.416-0.469-1.168-0.817-2.055-0.976l0.663-2.474c0.162,0.096,0.31,0.245,0.446,0.45c0.005,0.007,0.01,0.013,0.016,0.018
			c0.001,0.001,0.002,0.001,0.002,0.002c0.002,0.001,0.003,0.002,0.005,0.003c0.006,0.005,0.013,0.008,0.02,0.01
			c0.002,0.001,0.004,0.002,0.006,0.002c0,0,0.001,0,0.001,0c0.001,0,0.001,0.001,0.002,0.001c0,0,0.001,0,0.001,0
			c0.006,0.002,0.013,0.002,0.019,0.002c0.001,0,0.002,0.001,0.004,0.001c0.001,0,0.001-0.001,0.002-0.001c0,0,0.001,0,0.001,0
			c0.003,0,0.005-0.001,0.008-0.001c0.005-0.001,0.011-0.001,0.017-0.003c0.003-0.001,0.005-0.003,0.008-0.004
			c0.002-0.001,0.003-0.001,0.005-0.001c0.638-0.319,1.14-0.185,1.533,0.411c0.005,0.008,0.011,0.014,0.018,0.019
			c0.002,0.001,0.003,0.002,0.005,0.003c0.008,0.006,0.017,0.011,0.027,0.014c0.001,0,0.001,0,0.002,0.001c0,0,0.001,0,0.001,0
			c0.007,0.002,0.015,0.003,0.022,0.003c0.009,0,0.018-0.002,0.027-0.005c0.003-0.001,0.006-0.003,0.009-0.005
			c0.005-0.002,0.009-0.003,0.013-0.006c0.001,0,0.001-0.001,0.002-0.002c0.009-0.006,0.017-0.014,0.023-0.023
			c0.001-0.001,0.001-0.003,0.002-0.004c0.004-0.007,0.008-0.014,0.01-0.023c0.152-0.566,0.025-1.17-0.358-1.7
			c-0.379-0.524-0.964-0.914-1.648-1.097c-0.683-0.183-1.385-0.138-1.975,0.127c-0.595,0.267-1.006,0.724-1.159,1.288c0,0,0,0,0,0
			c-0.001,0.002-0.001,0.003-0.002,0.005c-0.001,0.004,0,0.008-0.001,0.013c-0.001,0.007-0.002,0.013-0.001,0.019
			c0.001,0.007,0.003,0.012,0.005,0.019c0.001,0.004,0.001,0.008,0.003,0.013c0.001,0.001,0.001,0.001,0.002,0.002
			c0.003,0.006,0.008,0.011,0.012,0.016c0.003,0.004,0.006,0.008,0.01,0.011c0.004,0.003,0.009,0.005,0.013,0.007
			c0.006,0.003,0.012,0.007,0.018,0.009c0.001,0,0.001,0.001,0.002,0.001c0.004,0.001,0.008,0.001,0.013,0.001
			c0.007,0.001,0.013,0.002,0.02,0.001c0.007-0.001,0.013-0.003,0.02-0.006c0.004-0.001,0.008-0.001,0.011-0.003
			c0.638-0.319,1.14-0.184,1.533,0.411c0.005,0.008,0.011,0.014,0.018,0.02c0.002,0.001,0.003,0.002,0.005,0.003
			c0.008,0.006,0.017,0.011,0.027,0.014c0.001,0,0.001,0.001,0.002,0.001c0,0,0,0,0.001,0c0.004,0.001,0.008,0.001,0.012,0.002
			c0.023,0.01,0.05,0.01,0.074-0.002c0.21-0.105,0.405-0.16,0.586-0.166l-0.678,2.532c-0.188-0.017-0.379-0.027-0.573-0.027
			c-1.34,0-2.567,0.42-3.146,1.072c-0.287-0.004-0.574,0.076-0.859,0.242c-0.043,0.025-0.057,0.08-0.032,0.123
			c0.025,0.043,0.08,0.057,0.123,0.032c0.502-0.292,0.991-0.293,1.493,0c0.278,0.162,0.557,0.243,0.837,0.243
			s0.56-0.081,0.837-0.243c0.502-0.292,0.991-0.293,1.493,0c0.556,0.324,1.119,0.324,1.674,0c0.503-0.293,0.991-0.293,1.493,0
			c0.043,0.025,0.098,0.011,0.123-0.032C27.027,170.431,27.012,170.376,26.969,170.351z M23.702,166.468
			c0.32-1.055,0.875-1.66,1.219-1.568c0.342,0.092,0.52,0.886,0.276,1.951C24.8,166.354,24.298,166.225,23.702,166.468z
			 M26.47,165.928c0.307,0.425,0.435,0.9,0.37,1.356c-0.392-0.485-0.885-0.613-1.47-0.383c0.18-0.78,0.15-1.477-0.055-1.866
			C25.788,165.234,26.19,165.541,26.47,165.928z M22.068,166.006c0.171-0.428,0.52-0.775,0.999-0.99
			c0.436-0.195,0.938-0.26,1.446-0.195c-0.373,0.234-0.746,0.823-0.981,1.589C23.141,165.918,22.65,165.782,22.068,166.006z
			 M24.4,166.541c0.052,0.008,0.103,0.022,0.153,0.04l-0.676,2.522c-0.052-0.008-0.104-0.016-0.157-0.022L24.4,166.541z
			 M25.295,170.351c-0.503,0.293-0.991,0.293-1.493,0c-0.555-0.324-1.119-0.324-1.674,0c-0.502,0.293-0.991,0.293-1.493,0
			c-0.195-0.114-0.392-0.187-0.588-0.22c0.579-0.56,1.697-0.914,2.919-0.914c1.221,0,2.339,0.355,2.918,0.914
			C25.687,170.164,25.49,170.237,25.295,170.351z"/>
		<path stroke="#0077CC" stroke-miterlimit="10" d="M19.881,166.036c-0.017,0-0.034-0.002-0.05-0.007
			c-0.055-0.016-0.1-0.058-0.118-0.113l-0.084-0.246l-0.257,0.027c-0.057,0.005-0.114-0.017-0.152-0.06
			c-0.038-0.044-0.052-0.103-0.038-0.16l0.062-0.253l-0.231-0.116c-0.052-0.026-0.087-0.076-0.095-0.133
			c-0.008-0.057,0.012-0.115,0.054-0.154l0.189-0.179l-0.132-0.222c-0.029-0.05-0.032-0.111-0.008-0.163s0.072-0.09,0.129-0.101
			l0.256-0.048l0.01-0.258c0.003-0.058,0.033-0.111,0.082-0.142c0.048-0.031,0.109-0.037,0.163-0.015l0.241,0.098l0.148-0.212
			c0.033-0.047,0.088-0.075,0.145-0.075c0.058,0,0.112,0.028,0.145,0.075l0.15,0.213l0.239-0.099
			c0.054-0.022,0.115-0.016,0.163,0.015c0.049,0.031,0.079,0.084,0.082,0.142l0.011,0.26l0.254,0.046
			c0.057,0.011,0.105,0.049,0.129,0.101c0.024,0.053,0.021,0.114-0.008,0.164l-0.131,0.225l0.189,0.177
			c0.042,0.04,0.062,0.097,0.054,0.155c-0.008,0.057-0.044,0.107-0.095,0.133l-0.232,0.118l0.063,0.251
			c0.014,0.056,0,0.116-0.038,0.16c-0.038,0.044-0.095,0.066-0.152,0.06l-0.259-0.026l-0.082,0.245
			c-0.019,0.055-0.063,0.097-0.118,0.113c-0.055,0.016-0.116,0.005-0.161-0.032l-0.204-0.162l-0.202,0.162
			C19.96,166.022,19.921,166.036,19.881,166.036z M19.631,165.49c0.076,0,0.143,0.048,0.168,0.121l0.084,0.246l0.201-0.163
			c0.065-0.052,0.156-0.052,0.221,0l0.204,0.162l0.081-0.245c0.027-0.079,0.103-0.128,0.186-0.12l0.259,0.026l-0.065-0.251
			c-0.02-0.08,0.018-0.163,0.092-0.201l0.232-0.118l-0.19-0.176c-0.06-0.057-0.074-0.147-0.031-0.219l0.131-0.225l-0.255-0.045
			c-0.082-0.015-0.141-0.084-0.145-0.167l-0.011-0.26l-0.239,0.1c-0.077,0.031-0.164,0.006-0.212-0.063l-0.149-0.211l-0.148,0.211
			c-0.048,0.068-0.135,0.093-0.212,0.062l-0.242-0.098l-0.009,0.259c-0.004,0.083-0.063,0.152-0.145,0.167l-0.256,0.048l0.132,0.222
			c0.042,0.072,0.029,0.162-0.031,0.219l-0.189,0.179l0.232,0.115c0.074,0.038,0.112,0.121,0.092,0.202l-0.063,0.253l0.257-0.028
			C19.619,165.491,19.625,165.49,19.631,165.49z"/>
		<path stroke="#0077CC" stroke-miterlimit="10" d="M20.195,165.398c-0.347,0-0.63-0.283-0.63-0.63s0.283-0.63,0.63-0.63
			s0.63,0.283,0.63,0.63S20.542,165.398,20.195,165.398z M20.195,164.318c-0.248,0-0.45,0.202-0.45,0.45s0.202,0.45,0.45,0.45
			c0.248,0,0.45-0.202,0.45-0.45S20.443,164.318,20.195,164.318z"/>
	</g>
</g>
<g id="Ranomafana_-_Fianarantsoa_1_">
		<path id="Ranomafana_-_Fianarantsoa" fill="none" stroke="#562B05" stroke-width="3" stroke-miterlimit="10" stroke-opacity="0.4" d="
		M216.81,413.39c0,0,1.027-12.086,13.813-10.086"/>
	<g id="Car_Fianarantsoa_Ranohira_1_" transform="translate(1.4065934065934016 1.4065934065934016) scale(2.81 2.81)">
		<circle cx="83.563" cy="146.859" r="0.151"/>
		<circle cx="79.618" cy="146.859" r="0.151"/>
		<path fill="#562B05" d="M83.93,145.255l-0.618-0.094l-0.182-0.199c-0.433-0.475-1.05-0.747-1.693-0.747h-0.483
			c-0.105,0-0.209,0.008-0.311,0.023c-0.002,0-0.003,0-0.006,0.001c-0.603,0.088-1.145,0.423-1.492,0.937
			c-0.615,0.224-1.056,0.8-1.056,1.388c0,0.252,0.204,0.456,0.457,0.456h0.267c0.075,0.376,0.408,0.661,0.806,0.661
			s0.731-0.285,0.806-0.661h2.332c0.074,0.376,0.407,0.661,0.806,0.661s0.731-0.285,0.806-0.661h0.228
			c0.252,0,0.457-0.205,0.457-0.456C85.054,145.904,84.581,145.354,83.93,145.255z M81.437,144.524c0.547,0,1.072,0.228,1.445,0.626
			h-1.739l-0.253-0.624c0.021-0.001,0.042-0.002,0.064-0.002H81.437z M80.572,144.564l0.237,0.587h-1.252
			C79.825,144.85,80.18,144.645,80.572,144.564z M79.619,147.371c-0.283,0-0.513-0.23-0.513-0.512c0-0.283,0.23-0.513,0.513-0.513
			c0.282,0,0.512,0.23,0.512,0.513C80.131,147.142,79.901,147.371,79.619,147.371z M83.563,147.371c-0.283,0-0.512-0.23-0.512-0.512
			c0-0.283,0.229-0.513,0.512-0.513s0.512,0.23,0.512,0.513C84.075,147.142,83.846,147.371,83.563,147.371z"/>
	</g>
</g>
</svg>
